<?xml version="1.0" encoding="utf-8"?>
<!-- Generator: Adobe Illustrator 21.1.0, SVG Export Plug-In . SVG Version: 6.00 Build 0)  -->
<svg version="1.1" id="Layer_1" xmlns="http://www.w3.org/2000/svg" xmlns:xlink="http://www.w3.org/1999/xlink" x="0px" y="0px" viewBox="0 0 100 70" style="enable-background:new 0 0 100 70;" xml:space="preserve">
<style type="text/css">
    .st0{fill:#CFD94E;}
    .st1{fill:#0A2F56;}
    .st2{fill:#FFFFFF;}
    .st3{fill:#123963;}
</style>
<g>
    <g>
        <path class="st0" d="M82.9,63.2H17.3c-4,0-7.3-3.3-7.3-7.3V15.5c0-4,3.3-7.3,7.3-7.3h65.6c4,0,7.3,3.3,7.3,7.3v40.4
            C90.3,59.9,87,63.2,82.9,63.2z"/>
        <path class="st1" d="M82.9,64.1H17.3c-4.6,0-8.3-3.7-8.3-8.3V15.5c0-4.6,3.7-8.3,8.3-8.3h65.6c4.6,0,8.3,3.7,8.3,8.3v40.4
            C91.2,60.4,87.5,64.1,82.9,64.1z M17.3,9.1c-3.5,0-6.3,2.8-6.3,6.3v40.4c0,3.5,2.8,6.3,6.3,6.3h65.6c3.5,0,6.3-2.8,6.3-6.3V15.5
            c0-3.5-2.8-6.3-6.3-6.3H17.3z"/>
    </g>
    <g>
        <path class="st1" d="M55.7,38.4c0,0.1,0.1,0.3,0.1,0.4c0,0.2,0,0.4-0.1,0.5c-0.1,0.1-0.2,0.3-0.3,0.4c-0.1,0.1-0.3,0.2-0.4,0.2
            C54.9,40,54.7,40,54.5,40c-0.2,0-0.4-0.1-0.7-0.2c-0.2-0.1-0.3-0.4-0.4-0.7l-1-2.8h-6l-1,2.8c-0.1,0.3-0.2,0.5-0.4,0.7
            c-0.2,0.1-0.4,0.2-0.6,0.2c-0.2,0-0.3,0-0.5-0.1c-0.1-0.1-0.3-0.1-0.4-0.2c-0.1-0.1-0.2-0.2-0.3-0.4c-0.1-0.1-0.1-0.3-0.1-0.5
            c0-0.1,0-0.1,0-0.2c0-0.1,0-0.1,0.1-0.2l3.9-10.9c0.2-0.5,0.3-0.9,0.5-1.2c0.2-0.3,0.3-0.6,0.5-0.7c0.2-0.2,0.4-0.3,0.6-0.4
            c0.2-0.1,0.4-0.1,0.7-0.1c0.3,0,0.5,0,0.7,0.1c0.2,0.1,0.4,0.2,0.6,0.4c0.2,0.2,0.3,0.4,0.5,0.7s0.3,0.7,0.5,1.2L55.7,38.4z
             M49.5,27.2L47,34.6h5L49.5,27.2L49.5,27.2z"/>
        <path class="st1" d="M56.2,27.2c-0.2,0-0.3,0-0.4-0.1s-0.2-0.1-0.3-0.2s-0.1-0.2-0.2-0.3c0-0.1-0.1-0.3-0.1-0.4s0-0.3,0.1-0.4
            c0-0.1,0.1-0.2,0.2-0.3c0.1-0.1,0.2-0.2,0.3-0.2c0.1-0.1,0.3-0.1,0.4-0.1H65c0.2,0,0.3,0,0.4,0.1c0.1,0.1,0.2,0.1,0.3,0.2
            s0.1,0.2,0.2,0.3c0,0.1,0.1,0.3,0.1,0.4s0,0.3-0.1,0.4c0,0.1-0.1,0.2-0.2,0.3s-0.2,0.2-0.3,0.2s-0.3,0.1-0.4,0.1h-3.1v11.5
            c0,0.2,0,0.4-0.1,0.6c-0.1,0.2-0.2,0.3-0.3,0.4c-0.1,0.1-0.3,0.2-0.4,0.3C61,40,60.8,40,60.6,40s-0.3,0-0.5-0.1
            c-0.1-0.1-0.3-0.1-0.4-0.3c-0.1-0.1-0.2-0.3-0.3-0.4c-0.1-0.2-0.1-0.4-0.1-0.6V27.2H56.2z"/>
        <path class="st1" d="M76.4,26.4c0-0.2,0-0.4,0.1-0.6c0.1-0.2,0.2-0.3,0.3-0.4c0.1-0.1,0.3-0.2,0.4-0.3c0.1-0.1,0.3-0.1,0.5-0.1
            c0.2,0,0.3,0,0.5,0.1c0.1,0.1,0.3,0.1,0.4,0.3c0.1,0.1,0.2,0.3,0.3,0.4c0.1,0.2,0.1,0.4,0.1,0.6v12.2c0,0.2,0,0.4-0.1,0.6
            c-0.1,0.2-0.2,0.3-0.3,0.4c-0.1,0.1-0.3,0.2-0.4,0.3S77.8,40,77.6,40s-0.3,0-0.5-0.1c-0.2-0.1-0.3-0.1-0.4-0.3s-0.2-0.3-0.3-0.4
            c-0.1-0.2-0.1-0.4-0.1-0.6v-5.3h-6v5.3c0,0.2,0,0.4-0.1,0.6c-0.1,0.2-0.2,0.3-0.3,0.4c-0.1,0.1-0.3,0.2-0.4,0.3S69.3,40,69.1,40
            c-0.2,0-0.3,0-0.5-0.1c-0.2-0.1-0.3-0.1-0.4-0.3c-0.1-0.1-0.2-0.3-0.3-0.4c-0.1-0.2-0.1-0.4-0.1-0.6V26.4c0-0.2,0-0.4,0.1-0.6
            c0.1-0.2,0.2-0.3,0.3-0.4c0.1-0.1,0.3-0.2,0.4-0.3c0.2-0.1,0.3-0.1,0.5-0.1c0.2,0,0.3,0,0.5,0.1c0.1,0.1,0.3,0.1,0.4,0.3
            c0.1,0.1,0.2,0.3,0.3,0.4c0.1,0.2,0.1,0.4,0.1,0.6v4.7h6V26.4z"/>
    </g>
    <g>
        <circle class="st2" cx="27.2" cy="27.7" r="12.4"/>
        <path class="st1" d="M27.2,41.1c-7.4,0-13.4-6-13.4-13.4s6-13.4,13.4-13.4s13.4,6,13.4,13.4S34.6,41.1,27.2,41.1z M27.2,16.2
            c-6.3,0-11.5,5.1-11.5,11.5s5.1,11.5,11.5,11.5S38.7,34,38.7,27.7S33.5,16.2,27.2,16.2z"/>
    </g>
    <g>
        <g>
            <circle class="st2" cx="32" cy="28.1" r="8.2"/>
            <path class="st3" d="M32,36.8c-4.8,0-8.7-3.9-8.7-8.7s3.9-8.7,8.7-8.7c4.8,0,8.7,3.9,8.7,8.7S36.8,36.8,32,36.8z M32,20.4
                c-4.3,0-7.7,3.5-7.7,7.7s3.5,7.7,7.7,7.7s7.7-3.5,7.7-7.7S36.3,20.4,32,20.4z"/>
        </g>
        <g>
            <path class="st1" d="M32,19.8c-1.1,0-2.1,0.2-3,0.6c3,1.2,5.2,4.2,5.2,7.6S32,34.4,29,35.7c0.9,0.4,2,0.6,3,0.6
                c4.5,0,8.2-3.7,8.2-8.2S36.5,19.8,32,19.8z"/>
        </g>
    </g>
    <rect x="36.8" y="52.5" class="st1" width="43.6" height="2"/>
</g>
</svg>
