<?xml version="1.0" encoding="utf-8"?>
<!-- Generator: Adobe Illustrator 21.1.0, SVG Export Plug-In . SVG Version: 6.00 Build 0)  -->
<svg version="1.1" id="Layer_1" xmlns="http://www.w3.org/2000/svg" xmlns:xlink="http://www.w3.org/1999/xlink" x="0px" y="0px"
     viewBox="0 0 100 70" style="enable-background:new 0 0 100 70;" xml:space="preserve">
<style type="text/css">
    .st0{fill:#CFD94E;}
    .st1{fill:#0A2F56;}
    .st2{fill:#FFFFFF;}
</style>
<g>
    <g>
        <circle class="st0" cx="50.2" cy="35.2" r="33"/>
        <path class="st1" d="M50.2,69.1c-18.7,0-34-15.2-34-34s15.2-34,34-34s34,15.2,34,34S68.9,69.1,50.2,69.1z M50.2,3.2
            c-17.6,0-32,14.3-32,32s14.3,32,32,32s32-14.3,32-32S67.8,3.2,50.2,3.2z"/>
    </g>
    <path class="st2" d="M65.1,31.2c-1.4,0-2.6,1.1-2.6,2.6v9.4c0,0.9-1.1,1.8-2.6,1.8H43.1v-2.3c0-1-0.6-1.8-1.6-1.8
        c-0.4,0-0.7,0.1-1.1,0.3L34.2,46c-0.6,0.4-0.9,0.9-0.9,1.5c0,0.6,0.3,1.2,0.9,1.5l6.3,4.8c0.4,0.2,0.7,0.3,1.1,0.3
        c0.9,0,1.6-0.7,1.6-1.8v-2.4h16.8c4.2,0,7.7-3.1,7.7-6.9v-9.4C67.6,32.4,66.5,31.2,65.1,31.2z"/>
    <path class="st2" d="M56.9,25.7v2.1c0,1,0.6,1.8,1.6,1.8c0.4,0,0.7-0.1,1.1-0.3l6.3-4.8c0.6-0.4,0.9-0.9,0.9-1.5
        c0-0.6-0.3-1.2-0.9-1.5l-6.3-4.8c-0.4-0.2-0.7-0.3-1.1-0.3c-0.9,0-1.6,0.7-1.6,1.8v2.5H41.1c-4.2,0-7.7,3.1-7.7,6.9v8.4
        c0,1.4,1.1,2.6,2.6,2.6c1.4,0,2.6-1.1,2.6-2.6v-8.4c0-0.8,1.1-1.8,2.6-1.8H56.9z"/>
</g>
</svg>
