<?xml version="1.0" encoding="utf-8"?>
<!-- Generator: Adobe Illustrator 21.1.0, SVG Export Plug-In . SVG Version: 6.00 Build 0)  -->
<svg version="1.1" id="Layer_1" xmlns="http://www.w3.org/2000/svg" xmlns:xlink="http://www.w3.org/1999/xlink" x="0px" y="0px"
     viewBox="0 0 100 70" style="enable-background:new 0 0 100 70;" xml:space="preserve">
<style type="text/css">
    .st0{fill:none;}
    .st1{fill:#CFD94E;}
    .st2{fill:#0A2F56;}
    .st3{fill:#FFFFFF;}
</style>
<g>
    <path class="st0" d="M99.1,68.1H26.9c-1.8,0-3.3-1.5-3.3-3.3V27.7c0-0.6,0.5-1.1,1.1-1.1h74.3c1.8,0,3.3,1.5,3.3,3.3v35
        C102.3,66.6,100.9,68.1,99.1,68.1z"/>
    <g>
        <path class="st1" d="M86.6,43.1L19.4,66.9c-2.1,0.7-4.4-0.4-5.1-2.4L2.5,31.3c-0.7-2.1,0.4-4.4,2.4-5.1L72.2,2.4
            c2.1-0.7,4.4,0.4,5.1,2.4L89.1,38C89.8,40.1,88.7,42.4,86.6,43.1z"/>
        <path class="st2" d="M18,68.1c-2.1,0-4-1.3-4.7-3.3L1.6,31.6c-0.9-2.6,0.4-5.5,3-6.4L71.9,1.5c1.3-0.4,2.6-0.4,3.8,0.2
            s2.1,1.6,2.6,2.8L90,37.7c0.9,2.6-0.4,5.5-3,6.4L19.7,67.8C19.1,68,18.6,68.1,18,68.1z M73.6,3.2c-0.3,0-0.7,0.1-1,0.2L5.3,27.1
            c-1.6,0.6-2.4,2.3-1.8,3.8l11.7,33.2c0.6,1.6,2.3,2.4,3.8,1.8l67.3-23.8c1.6-0.6,2.4-2.3,1.8-3.8L76.4,5.2
            c-0.3-0.8-0.8-1.4-1.5-1.7C74.4,3.3,74,3.2,73.6,3.2z"/>
    </g>
    <g>
        <path class="st1" d="M89.6,55.4l-70.3,12c-2.2,0.4-4.2-1.1-4.6-3.3L8.8,29.4c-0.4-2.2,1.1-4.2,3.3-4.6l70.3-12
            c2.2-0.4,4.2,1.1,4.6,3.3l5.9,34.7C93.3,53,91.8,55,89.6,55.4z"/>
        <path class="st2" d="M18.6,68.4c-2.4,0-4.5-1.7-4.9-4.2L7.8,29.6c-0.5-2.7,1.4-5.3,4.1-5.8l70.3-12c2.7-0.5,5.3,1.4,5.8,4.1
            l5.9,34.7c0.2,1.3-0.1,2.6-0.9,3.7c-0.8,1.1-1.9,1.8-3.2,2l-70.3,12C19.2,68.4,18.9,68.4,18.6,68.4z M83.1,13.8
            c-0.2,0-0.3,0-0.5,0l-70.3,12c-1.6,0.3-2.7,1.8-2.5,3.5l5.9,34.7c0.3,1.6,1.8,2.7,3.5,2.5l70.3-12c0.8-0.1,1.5-0.6,1.9-1.2
            s0.6-1.4,0.5-2.2L86,16.3C85.8,14.8,84.5,13.8,83.1,13.8z"/>
    </g>
    <g>
        <path class="st1" d="M90.5,67.8H19.2c-2.2,0-4-1.8-4-4V28.7c0-2.2,1.8-4,4-4h71.3c2.2,0,4,1.8,4,4v35.2
            C94.5,66,92.7,67.8,90.5,67.8z"/>
        <path class="st2" d="M90.5,68.8H19.2c-2.8,0-5-2.2-5-5V28.7c0-2.8,2.2-5,5-5h71.3c2.8,0,5,2.2,5,5v35.2
            C95.5,66.6,93.3,68.8,90.5,68.8z M19.2,25.7c-1.7,0-3,1.3-3,3v35.2c0,1.7,1.3,3,3,3h71.3c1.7,0,3-1.3,3-3V28.7c0-1.7-1.3-3-3-3
            H19.2z"/>
    </g>
    <g>
        <ellipse transform="matrix(0.9971 -7.569060e-02 7.569060e-02 0.9971 -3.3529 4.2761)" class="st3" cx="54.7" cy="46.4" rx="12.1" ry="12.1"/>
        <path class="st2" d="M54.7,59.3c-3.1,0-6-1.1-8.4-3.1c-2.6-2.3-4.2-5.4-4.5-8.8c-0.5-7.1,4.8-13.4,11.9-13.9
            c7.1-0.5,13.4,4.8,13.9,11.9c0.3,3.4-0.8,6.8-3.1,9.4c-2.3,2.6-5.4,4.2-8.8,4.5C55.4,59.3,55,59.3,54.7,59.3z M54.7,35.2
            c-0.3,0-0.6,0-0.9,0c-6.2,0.5-10.8,5.9-10.3,12c0.2,3,1.6,5.7,3.9,7.7c2.3,1.9,5.2,2.9,8.1,2.7c3-0.2,5.7-1.6,7.7-3.9
            c1.9-2.3,2.9-5.2,2.7-8.1C65.5,39.7,60.5,35.2,54.7,35.2z"/>
    </g>
    <g>
        <path class="st2" d="M54.2,38.2h1.2v1.3c1.7,0.2,2.8,1.1,3.3,2.7l-1.6,0.7c-0.2-0.6-0.4-1-0.7-1.2c-0.2-0.2-0.6-0.4-1.1-0.5v3.7
            c1.3,0.4,2.3,0.8,2.8,1.4c0.5,0.6,0.8,1.4,0.8,2.3c0,1-0.3,1.8-0.9,2.5c-0.6,0.7-1.5,1.1-2.6,1.2V54h-1.2v-1.7
            C52.3,52.1,51,51,50.5,49l1.7-0.6c0.3,1.2,0.9,2,2,2.2v-4C52.1,46,51,44.9,51,43.1c0-0.8,0.3-1.6,0.8-2.3c0.5-0.7,1.3-1.1,2.4-1.2
            V38.2z M54.2,41.2c-0.9,0.2-1.3,0.8-1.3,1.7c0,0.8,0.4,1.4,1.3,1.7V41.2z M55.3,50.6c1.1-0.2,1.7-0.8,1.7-1.8c0-1-0.6-1.6-1.7-1.8
            V50.6z"/>
    </g>
</g>
</svg>
