<?xml version="1.0" encoding="utf-8"?>
<!-- Generator: Adobe Illustrator 21.1.0, SVG Export Plug-In . SVG Version: 6.00 Build 0)  -->
<svg version="1.1" id="Layer_1" xmlns="http://www.w3.org/2000/svg" xmlns:xlink="http://www.w3.org/1999/xlink" x="0px" y="0px"
     viewBox="0 0 100 70" style="enable-background:new 0 0 100 70;" xml:space="preserve">
<style type="text/css">
    .st0{fill:#CFD94E;}
    .st1{fill:#0A2F56;}
    .st2{fill:#FFFFFF;}
</style>
<g>
    <g>
        <path class="st0" d="M83.2,67.6H17.6c-4,0-7.3-3.3-7.3-7.3V19.9c0-4,3.3-7.3,7.3-7.3h65.6c4,0,7.3,3.3,7.3,7.3v40.4
            C90.6,64.3,87.3,67.6,83.2,67.6z"/>
        <path class="st1" d="M83.2,68.6H17.6c-4.6,0-8.3-3.7-8.3-8.3V19.9c0-4.6,3.7-8.3,8.3-8.3h65.6c4.6,0,8.3,3.7,8.3,8.3v40.4
            C91.5,64.9,87.8,68.6,83.2,68.6z M17.6,13.6c-3.5,0-6.3,2.8-6.3,6.3v40.4c0,3.5,2.8,6.3,6.3,6.3h65.6c3.5,0,6.3-2.8,6.3-6.3V19.9
            c0-3.5-2.8-6.3-6.3-6.3H17.6z"/>
    </g>
    <g>
        <polygon class="st2" points="68.4,42.6 70.8,49.8 76.8,45.1 77.1,43.9 68.7,41.4"/>
        <rect x="63.5" y="22.4" transform="matrix(0.2821 -0.9594 0.9594 0.2821 30.0153 93.6643)" class="st2" width="28.3" height="8.8"/>
        <path class="st2" d="M85.8,5.5l-3.7-1.1c-1.3-0.4-2.7,0.3-3,1.7l-1,3.4l8.4,2.5l1-3.4C87.9,7.2,87.2,5.9,85.8,5.5z"/>
        <path class="st1" d="M86.3,3.3l-3.7-1.1c-2.5-0.9-5.1,0.5-5.9,3.2L65.8,42.6c0.1,0.2,0,0.6,0.1,0.8l3.2,9
            c-0.1,0.3,0.4,0.7,0.7,0.8c0.2-0.1,0.8-0.1,1-0.3l7.7-5.6c0.2-0.1,0.4-0.2,0.5-0.6L90,9.2C90.9,6.7,89,4.1,86.3,3.3z M76.8,45.1
            l-5.9,4.7l-2.5-7.1l0.3-1.2l8.4,2.5L76.8,45.1z M77.8,41.6l-8.4-2.5l8-27.1l8.4,2.5L77.8,41.6z M87.5,8.6l-1,3.4l-8.4-2.5l1-3.4
            c0.4-1.3,1.7-2.1,3-1.7l3.7,1.1C87.2,5.9,87.9,7.2,87.5,8.6z"/>
    </g>
    <rect x="19.7" y="34.7" class="st1" width="28.5" height="3"/>
    <rect x="19.7" y="41.6" class="st1" width="28.5" height="3"/>
    <rect x="61.5" y="53.8" class="st1" width="18.3" height="2.6"/>
</g>
</svg>
