<?xml version="1.0" encoding="utf-8"?>
<!-- Generator: Adobe Illustrator 21.1.0, SVG Export Plug-In . SVG Version: 6.00 Build 0)  -->
<svg version="1.1" id="Layer_1" xmlns="http://www.w3.org/2000/svg" xmlns:xlink="http://www.w3.org/1999/xlink" x="0px" y="0px"
     viewBox="0 0 100 70" style="enable-background:new 0 0 100 70;" xml:space="preserve">
<style type="text/css">
    .st0{fill:#CFD94E;}
    .st1{fill:#0A2F56;}
    .st2{fill:#FFFFFF;}
</style>
<g>
    <g>
        <path class="st0" d="M83.4,63.2H17.8c-4,0-7.3-3.3-7.3-7.3V15.5c0-4,3.3-7.3,7.3-7.3h65.6c4,0,7.3,3.3,7.3,7.3v40.4
            C90.8,59.9,87.5,63.2,83.4,63.2z"/>
        <path class="st1" d="M83.4,64.1H17.8c-4.6,0-8.3-3.7-8.3-8.3V15.5c0-4.6,3.7-8.3,8.3-8.3h65.6c4.6,0,8.3,3.7,8.3,8.3v40.4
            C91.7,60.4,88,64.1,83.4,64.1z M17.8,9.1c-3.5,0-6.3,2.8-6.3,6.3v40.4c0,3.5,2.8,6.3,6.3,6.3h65.6c3.5,0,6.3-2.8,6.3-6.3V15.5
            c0-3.5-2.8-6.3-6.3-6.3H17.8z"/>
    </g>
    <g>
        <path class="st2" d="M30.6,29.9h-8.7c-1.1,0-2-0.9-2-2v-8.7c0-1.1,0.9-2,2-2h8.7c1.1,0,2,0.9,2,2v8.7C32.6,29,31.7,29.9,30.6,29.9z"/>
        <path class="st1" d="M30.6,30.9h-8.7c-1.6,0-3-1.3-3-3v-8.7c0-1.6,1.3-3,3-3h8.7c1.6,0,3,1.3,3,3v8.7
            C33.6,29.5,32.3,30.9,30.6,30.9z M21.9,18.2c-0.5,0-1,0.4-1,1v8.7c0,0.5,0.4,1,1,1h8.7c0.5,0,1-0.4,1-1v-8.7c0-0.5-0.4-1-1-1H21.9z"/>
    </g>
    <path class="st1" d="M75.4,39.6h-8v-2h8V39.6z M59.4,39.6h-8v-2h8V39.6z M43.4,39.6h-8v-2h8V39.6z M27.4,39.6h-8v-2h8V39.6z"/>
    <rect x="19.4" y="50.4" class="st1" width="23.5" height="2"/>
    <g>
        <path class="st2" d="M76.2,45c-1.6,0-3,0.7-3.9,1.7c-1-1.1-2.4-1.7-3.9-1.7c-3,0-5.4,2.4-5.4,5.4c0,3,2.4,5.4,5.4,5.4
            c1.6,0,3-0.7,3.9-1.7c1,1.1,2.4,1.7,3.9,1.7c3,0,5.4-2.4,5.4-5.4C81.6,47.4,79.2,45,76.2,45z"/>
        <path class="st1" d="M76.2,56.6c-1.4,0-2.8-0.5-3.9-1.4c-1.1,0.9-2.5,1.4-3.9,1.4c-3.4,0-6.2-2.8-6.2-6.3s2.8-6.3,6.2-6.3
            c1.4,0,2.8,0.5,3.9,1.4c1.1-0.9,2.5-1.4,3.9-1.4c3.4,0,6.2,2.8,6.2,6.3S79.6,56.6,76.2,56.6z M72.3,52.7l0.6,0.7
            c0.9,0.9,2,1.4,3.3,1.4c2.5,0,4.5-2,4.5-4.5s-2-4.5-4.5-4.5c-1.3,0-2.4,0.5-3.3,1.4L72.3,48l-0.6-0.7c-0.9-0.9-2-1.4-3.3-1.4
            c-2.5,0-4.5,2-4.5,4.5s2,4.5,4.5,4.5c1.3,0,2.4-0.5,3.3-1.4L72.3,52.7z"/>
    </g>
</g>
</svg>
