<?xml version="1.0" encoding="utf-8"?>
<!-- Generator: Adobe Illustrator 21.1.0, SVG Export Plug-In . SVG Version: 6.00 Build 0)  -->
<svg version="1.1" id="Layer_1" xmlns="http://www.w3.org/2000/svg" xmlns:xlink="http://www.w3.org/1999/xlink" x="0px" y="0px"
     viewBox="0 0 100 70" style="enable-background:new 0 0 100 70;" xml:space="preserve">
<style type="text/css">
    .st0{fill:#CFD94E;}
    .st1{fill:#0A2F56;}
    .st2{fill:#FFFFFF;}
</style>
<g>
    <g>
        <path class="st0" d="M80.4,68.2H14.8c-4,0-7.3-3.3-7.3-7.3V20.5c0-4,3.3-7.3,7.3-7.3h65.6c4,0,7.3,3.3,7.3,7.3v40.4
            C87.8,64.9,84.5,68.2,80.4,68.2z"/>
        <path class="st1" d="M80.4,69.1H14.8c-4.6,0-8.3-3.7-8.3-8.3V20.5c0-4.6,3.7-8.3,8.3-8.3h65.6c4.6,0,8.3,3.7,8.3,8.3v40.4
            C88.7,65.4,85,69.1,80.4,69.1z M14.8,14.1c-3.5,0-6.3,2.8-6.3,6.3v40.4c0,3.5,2.8,6.3,6.3,6.3h65.6c3.5,0,6.3-2.8,6.3-6.3V20.5
            c0-3.5-2.8-6.3-6.3-6.3H14.8z"/>
    </g>
    <path class="st1" d="M27.6,35.9h-8.7c-1.6,0-3-1.3-3-3v-8.7c0-1.6,1.3-3,3-3h8.7c1.6,0,3,1.3,3,3v8.7
        C30.6,34.5,29.3,35.9,27.6,35.9z M18.9,23.2c-0.5,0-1,0.4-1,1v8.7c0,0.5,0.4,1,1,1h8.7c0.5,0,1-0.4,1-1v-8.7c0-0.5-0.4-1-1-1H18.9z"/>
    <path class="st1" d="M72.4,44.6h-8v-2h8V44.6z M56.4,44.6h-8v-2h8V44.6z M40.4,44.6h-8v-2h8V44.6z M24.4,44.6h-8v-2h8V44.6z"/>
    <rect x="16.4" y="55.4" class="st1" width="23.5" height="2"/>
    <path class="st1" d="M73.2,61.6c-1.4,0-2.8-0.5-3.9-1.4c-1.1,0.9-2.5,1.4-3.9,1.4c-3.4,0-6.2-2.8-6.2-6.3s2.8-6.3,6.2-6.3
        c1.4,0,2.8,0.5,3.9,1.4c1.1-0.9,2.5-1.4,3.9-1.4c3.4,0,6.2,2.8,6.2,6.3S76.6,61.6,73.2,61.6z M69.3,57.7l0.6,0.7
        c0.9,0.9,2,1.4,3.3,1.4c2.5,0,4.5-2,4.5-4.5s-2-4.5-4.5-4.5c-1.3,0-2.4,0.5-3.3,1.4L69.3,53l-0.6-0.7c-0.9-0.9-2-1.4-3.3-1.4
        c-2.5,0-4.5,2-4.5,4.5s2,4.5,4.5,4.5c1.3,0,2.4-0.5,3.3-1.4L69.3,57.7z"/>
    <g>
        <ellipse transform="matrix(0.9971 -7.569060e-02 7.569060e-02 0.9971 -1.2516 5.9317)" class="st2" cx="77.6" cy="19.5" rx="16" ry="16"/>
        <path class="st1" d="M77.6,36.6c-4.1,0-8-1.4-11.1-4.1c-3.5-3-5.6-7.1-5.9-11.7c-0.7-9.4,6.4-17.7,15.8-18.4
            C85.7,1.7,94,8.8,94.7,18.2c0.3,4.6-1.1,9-4.1,12.5c-3,3.5-7.1,5.6-11.7,5.9C78.5,36.6,78,36.6,77.6,36.6z M77.6,4.7
            c-0.4,0-0.8,0-1.1,0c-8.1,0.6-14.3,7.8-13.7,15.9c0.3,3.9,2.1,7.5,5.1,10.1c3,2.6,6.8,3.8,10.8,3.5c3.9-0.3,7.5-2.1,10.1-5.1
            c2.6-3,3.8-6.8,3.5-10.8C91.8,10.6,85.3,4.7,77.6,4.7z"/>
    </g>
    <g>
        <path class="st1" d="M76.9,8.7h1.6v1.7c2.2,0.2,3.7,1.4,4.3,3.6l-2.1,0.9c-0.3-0.8-0.6-1.3-0.9-1.6c-0.3-0.3-0.8-0.6-1.4-0.7v4.9
            c1.8,0.5,3,1.1,3.7,1.9c0.7,0.8,1.1,1.8,1.1,3c0,1.3-0.4,2.4-1.2,3.4c-0.8,0.9-2,1.5-3.5,1.6v2.2h-1.6v-2.2
            c-2.6-0.3-4.2-1.7-4.8-4.3l2.3-0.8c0.4,1.6,1.2,2.6,2.6,2.9v-5.3c-2.8-0.8-4.3-2.4-4.3-4.7c0-1.1,0.3-2.1,1-3
            c0.7-0.9,1.7-1.4,3.2-1.6V8.7z M77,12.6c-1.2,0.3-1.8,1-1.8,2.2c0,1.1,0.6,1.8,1.8,2.2V12.6z M78.4,25.1c1.5-0.2,2.2-1,2.2-2.4
            c0-1.3-0.7-2.1-2.2-2.4V25.1z"/>
    </g>
</g>
</svg>
