<?xml version="1.0" encoding="utf-8"?>
<!-- Generator: Adobe Illustrator 21.1.0, SVG Export Plug-In . SVG Version: 6.00 Build 0)  -->
<svg version="1.1" id="Layer_1" xmlns="http://www.w3.org/2000/svg" xmlns:xlink="http://www.w3.org/1999/xlink" x="0px" y="0px"
     viewBox="0 0 100 70" style="enable-background:new 0 0 100 70;" xml:space="preserve">
<style type="text/css">
    .st0{fill:#CFD94E;}
    .st1{fill:#0A2F56;}
    .st2{clip-path:url(#SVGID_2_);}
    .st3{fill:#FFFFFF;}
</style>
<g>
    <path class="st0" d="M83.3,62.2H17.7c-4,0-7.3-3.3-7.3-7.3V14.5c0-4,3.3-7.3,7.3-7.3h65.6c4,0,7.3,3.3,7.3,7.3v40.4
        C90.7,58.9,87.4,62.2,83.3,62.2z"/>
    <path class="st1" d="M83.3,63.1H17.7c-4.6,0-8.3-3.7-8.3-8.3V14.5c0-4.6,3.7-8.3,8.3-8.3h65.6c4.6,0,8.3,3.7,8.3,8.3v40.4
        C91.6,59.4,87.9,63.1,83.3,63.1z M17.7,8.1c-3.5,0-6.3,2.8-6.3,6.3v40.4c0,3.5,2.8,6.3,6.3,6.3h65.6c3.5,0,6.3-2.8,6.3-6.3V14.5
        c0-3.5-2.8-6.3-6.3-6.3H17.7z"/>
    <rect x="10.5" y="46.8" class="st1" width="80" height="2"/>
    <circle class="st1" cx="50.5" cy="54.8" r="3.3"/>
    <path class="st1" d="M35.7,44.7c-0.8,0-1.6-0.1-2.2-0.7c-0.6-0.6-0.9-1.5-0.9-2.9v-27c0-1.1,0.3-2,1-2.6c1-0.9,2.5-0.8,3.5-0.7
        c0.2,0,0.4,0,0.6,0c0.6,0,1,0.4,1,1s-0.4,1-1,1c-0.2,0-0.4,0-0.7,0c-0.7-0.1-1.6-0.1-2,0.2c-0.3,0.2-0.3,0.8-0.3,1.2v27
        c0,1,0.2,1.3,0.3,1.4c0.2,0.2,1,0.2,1.7,0.1c0.3,0,0.7,0,1,0c0.6,0,1,0.4,1,1s-0.4,1-1,1c-0.3,0-0.6,0-0.9,0S36,44.7,35.7,44.7z"/>
    <g>
        <defs>
            <rect id="SVGID_1_" x="36.9" y="2.8" width="40.1" height="43.5"/>
        </defs>
        <clipPath id="SVGID_2_">
            <use xlink:href="#SVGID_1_"  style="overflow:visible;"/>
        </clipPath>
        <g class="st2">
            <g>
                <path class="st3" d="M67.2,38.1L30.5,41c-2.2,0.2-4.2-1.5-4.4-3.8l-1.4-18.1c-0.2-2.2,1.5-4.2,3.8-4.4l36.7-2.9
                    c2.2-0.2,4.2,1.5,4.4,3.8L71,33.7C71.2,36,69.5,37.9,67.2,38.1z"/>
                <path class="st1" d="M30.2,42c-1.2,0-2.4-0.4-3.3-1.2c-1-0.9-1.7-2.1-1.8-3.5l-1.4-18.1c-0.1-1.4,0.3-2.7,1.2-3.7
                    c0.9-1,2.1-1.7,3.5-1.8l36.7-2.9c2.8-0.2,5.3,1.9,5.5,4.7L72,33.6c0.1,1.4-0.3,2.7-1.2,3.7c-0.9,1-2.1,1.7-3.5,1.8L30.6,42
                    C30.5,42,30.3,42,30.2,42z M65.5,12.8c-0.1,0-0.2,0-0.2,0l-36.7,2.9c-0.8,0.1-1.6,0.4-2.1,1.1c-0.5,0.6-0.8,1.4-0.7,2.3
                    l1.4,18.1c0.1,0.8,0.4,1.6,1.1,2.1c0.6,0.5,1.4,0.8,2.3,0.7l36.7-2.9c0.8-0.1,1.6-0.4,2.1-1.1c0.5-0.6,0.8-1.4,0.7-2.3
                    l-1.4-18.1C68.4,14,67.1,12.8,65.5,12.8z"/>
                </g>
                <rect x="30.4" y="18.6" transform="matrix(0.997 -7.776720e-02 7.776720e-02 0.997 -1.3951 2.9252)" class="st1" width="13" height="1.6"/>
            <g>
                <path class="st3" d="M61.5,29c-0.9,0.1-1.6,0.5-2.1,1.1c-0.6-0.5-1.4-0.9-2.3-0.8c-1.6,0.1-2.9,1.6-2.7,3.2
                    c0.1,1.6,1.6,2.9,3.2,2.7c0.9-0.1,1.6-0.5,2.1-1.1c0.6,0.5,1.4,0.9,2.3,0.8c1.6-0.1,2.9-1.6,2.7-3.2
                    C64.6,30.1,63.2,28.9,61.5,29z"/>
                <path class="st1" d="M62,35.5c-0.8,0.1-1.6-0.2-2.2-0.6c-0.6,0.5-1.3,0.9-2.1,0.9c-1.9,0.1-3.6-1.3-3.7-3.2
                    c-0.1-1.9,1.3-3.6,3.2-3.7c0.8-0.1,1.6,0.2,2.2,0.6c0.6-0.5,1.3-0.9,2.1-0.9c1.9-0.1,3.6,1.3,3.7,3.2
                    C65.4,33.6,63.9,35.3,62,35.5z M59.7,33.5l0.4,0.4c0.5,0.5,1.2,0.7,1.9,0.7c1.4-0.1,2.4-1.3,2.3-2.7c-0.1-1.4-1.3-2.4-2.7-2.3
                    c-0.7,0.1-1.3,0.4-1.8,0.9l-0.3,0.4l-0.4-0.4c-0.5-0.5-1.2-0.7-1.9-0.7c-1.4,0.1-2.4,1.3-2.3,2.7c0.1,1.4,1.3,2.4,2.7,2.3
                    c0.7-0.1,1.3-0.4,1.8-0.9L59.7,33.5z"/>
            </g>
            <rect x="46.6" y="17.3" transform="matrix(0.997 -7.776720e-02 7.776720e-02 0.997 -1.2476 4.1826)" class="st1" width="13" height="1.6"/>
            <rect x="30.8" y="23.6" transform="matrix(0.997 -7.776720e-02 7.776720e-02 0.997 -1.7625 3.6056)" class="st1" width="29.3" height="1.8"/>
        </g>
    </g>
    <path class="st1" d="M66,66H36c-0.6,0-1,0.4-1,1s0.4,1,1,1h30c0.6,0,1-0.4,1-1S66.6,66,66,66z"/>
</g>
</svg>
