<?xml version="1.0" encoding="utf-8"?>
<!-- Generator: Adobe Illustrator 21.1.0, SVG Export Plug-In . SVG Version: 6.00 Build 0)  -->
<svg version="1.1" id="Layer_1" xmlns="http://www.w3.org/2000/svg" xmlns:xlink="http://www.w3.org/1999/xlink" x="0px" y="0px"
     viewBox="0 0 100 70" style="enable-background:new 0 0 100 70;" xml:space="preserve">
<style type="text/css">
    .st0{fill:#CFD94E;}
    .st1{fill:#0A2F56;}
    .st2{fill:#FFFFFF;}
</style>
<g>
    <g>
        <path class="st0" d="M83.6,63.7H18c-4,0-7.3-3.3-7.3-7.3V16c0-4,3.3-7.3,7.3-7.3h65.6c4,0,7.3,3.3,7.3,7.3v40.4
            C90.9,60.4,87.6,63.7,83.6,63.7z"/>
        <path class="st1" d="M83.6,64.6H18c-4.6,0-8.3-3.7-8.3-8.3V16c0-4.6,3.7-8.3,8.3-8.3h65.6c4.6,0,8.3,3.7,8.3,8.3v40.4
            C91.9,60.9,88.2,64.6,83.6,64.6z M18,9.6c-3.5,0-6.3,2.8-6.3,6.3v40.4c0,3.5,2.8,6.3,6.3,6.3h65.6c3.5,0,6.3-2.8,6.3-6.3V16
            c0-3.5-2.8-6.3-6.3-6.3H18z"/>
    </g>
    <path id="XMLID_57_" class="st1" d="M23.2,34.5c-0.3,2-1.8,2-3.3,2H19l0.6-3.8c0-0.2,0.2-0.4,0.5-0.4h0.4c1,0,2,0,2.5,0.6
        C23.2,33.3,23.3,33.8,23.2,34.5z M22.5,29.2h-5.6c-0.4,0-0.7,0.3-0.8,0.7l-2.3,14.4c0,0.3,0.2,0.5,0.5,0.5H17
        c0.4,0,0.7-0.3,0.8-0.7l0.6-3.9c0.1-0.4,0.4-0.7,0.8-0.7h1.8c3.7,0,5.8-1.8,6.4-5.3c0.3-1.6,0-2.8-0.7-3.6
        C25.8,29.7,24.4,29.2,22.5,29.2z"/>
    <path id="XMLID_54_" class="st1" d="M34.4,39.6c-0.2,1-1,1.7-2.1,1.7c-0.5,0-1-0.2-1.2-0.5c-0.3-0.3-0.4-0.8-0.3-1.3
        c0.2-1,1-1.8,2.1-1.8c0.5,0,0.9,0.2,1.2,0.5C34.3,38.7,34.5,39.1,34.4,39.6z M39.4,34.4h-2.7c-0.2,0-0.4,0.2-0.5,0.4l-0.1,0.8
        l-0.2-0.3c-0.6-0.8-1.9-1.1-3.2-1.1c-3,0-5.5,2.2-6,5.4c-0.3,1.6,0.1,3.1,1,4.1c0.8,1,2,1.4,3.4,1.4c2.4,0,3.7-1.5,3.7-1.5
        l-0.1,0.7c0,0.3,0.2,0.5,0.5,0.5h2.4c0.4,0,0.7-0.3,0.8-0.7l1.5-9.2C39.9,34.7,39.7,34.4,39.4,34.4z"/>
    <path id="XMLID_33_" class="st1" d="M53.6,34.4h-2.7c-0.3,0-0.5,0.1-0.6,0.3l-3.7,5.5L44.9,35c-0.1-0.3-0.4-0.6-0.7-0.6h-2.7
        c-0.3,0-0.5,0.3-0.4,0.6l3,8.7l-2.8,3.9c-0.2,0.3,0,0.7,0.4,0.7h2.7c0.3,0,0.5-0.1,0.6-0.3l9-13C54.2,34.9,54,34.4,53.6,34.4z"/>
    <path id="XMLID_38_" class="st2" d="M63.2,34.5c-0.3,2-1.8,2-3.3,2H59l0.6-3.8c0-0.2,0.2-0.4,0.5-0.4h0.4c1,0,2,0,2.5,0.6
        C63.2,33.3,63.3,33.8,63.2,34.5z M62.5,29.2h-5.6c-0.4,0-0.7,0.3-0.8,0.7l-2.3,14.4c0,0.3,0.2,0.5,0.5,0.5h2.9
        c0.3,0,0.5-0.2,0.5-0.5l0.6-4.1c0.1-0.4,0.4-0.7,0.8-0.7h1.8c3.7,0,5.8-1.8,6.4-5.3c0.3-1.6,0-2.8-0.7-3.6
        C65.8,29.7,64.4,29.2,62.5,29.2z"/>
    <path id="XMLID_28_" class="st2" d="M82.5,29.6l-2.3,14.6c0,0.3,0.2,0.5,0.5,0.5h2.3c0.4,0,0.7-0.3,0.8-0.7L86,29.8
        c0-0.3-0.2-0.5-0.5-0.5h-2.6C82.7,29.2,82.5,29.4,82.5,29.6z"/>
    <path id="XMLID_1_" class="st2" d="M74.7,39.4c-0.2,1-1,1.7-2.1,1.7c-0.5,0-1-0.2-1.2-0.5c-0.3-0.3-0.4-0.8-0.3-1.3
        c0.2-1,1-1.8,2.1-1.8c0.5,0,0.9,0.2,1.2,0.5C74.7,38.4,74.8,38.9,74.7,39.4z M79.7,34.2H77c-0.2,0-0.4,0.2-0.5,0.4l-0.1,0.8
        l-0.2-0.3c-0.6-0.8-1.9-1.1-3.2-1.1c-3,0-5.5,2.2-6,5.4c-0.3,1.6,0.1,3.1,1,4.1c0.8,1,2,1.4,3.4,1.4c2.4,0,3.7-1.5,3.7-1.5L75,44
        c0,0.3,0.2,0.5,0.5,0.5h2.4c0.4,0,0.7-0.3,0.8-0.7l1.5-9.2C80.2,34.4,80,34.2,79.7,34.2z"/>
</g>
</svg>
