<?xml version="1.0" encoding="utf-8"?>
<!-- Generator: Adobe Illustrator 21.1.0, SVG Export Plug-In . SVG Version: 6.00 Build 0)  -->
<svg version="1.1" id="Layer_1" xmlns="http://www.w3.org/2000/svg" xmlns:xlink="http://www.w3.org/1999/xlink" x="0px" y="0px" viewBox="0 0 26 26" style="enable-background:new 0 0 26 26;" xml:space="preserve">
<style type="text/css">
    .st0{fill:#FFFFFF;}
    .st1{fill-rule:evenodd;clip-rule:evenodd;fill:#FFFFFF;}
</style>
<g>
    <path class="st0" d="M19.5,20h-13c-0.5,0-1-0.4-1-1V9.4c0-0.5,0.4-1,1-1h13c0.5,0,1,0.4,1,1V19C20.5,19.5,20.1,20,19.5,20z M7.2,18.6h11.7c0.2,0,0.3-0.1,0.3-0.3V10c0-0.2-0.1-0.3-0.3-0.3H7.2C7,9.8,6.9,9.9,6.9,10v8.3C6.9,18.5,7,18.6,7.2,18.6z"/>
    <path class="st0" d="M11,11.1c-0.4,0-0.7-0.3-0.7-0.7V7.7C10.3,7.3,10.6,7,11,7c0.4,0,0.7,0.3,0.7,0.7v2.7C11.6,10.8,11.3,11.1,11,11.1z"/>
    <path class="st0" d="M15,11.1c-0.4,0-0.7-0.3-0.7-0.7V7.7C14.3,7.3,14.6,7,15,7s0.7,0.3,0.7,0.7v2.7C15.7,10.8,15.4,11.1,15,11.1z"/>
    <path class="st0" d="M19.8,13.1H6.2c-0.4,0-0.7-0.3-0.7-0.7s0.3-0.7,0.7-0.7h13.6c0.4,0,0.7,0.3,0.7,0.7S20.2,13.1,19.8,13.1z"/>
    <path class="st1" d="M10.1,17.3H9.2c-0.5,0-0.9-0.4-0.9-0.9v-0.9c0-0.5,0.4-0.9,0.9-0.9h0.9c0.5,0,0.9,0.4,0.9,0.9v0.9C11,16.9,10.6,17.3,10.1,17.3z"/>
</g>
</svg>
