<svg width="32" height="32" xmlns="http://www.w3.org/2000/svg">
 <title/>
 <desc/>

 <g>
  <title>background</title>
  <rect fill="none" id="canvas_background" height="402" width="582" y="-1" x="-1"/>
 </g>
 <g>
  <title>Layer 1</title>
  <path stroke="null" fill="#ffffff" id="one-finger-click" d="m12.277527,3.269129l0,3.161882l0.790471,0l0,-3.161882l-0.790471,0l0,0zm5.060988,2.036932l-2.457241,1.989844l0.497459,0.614306l2.457241,-1.989836l-0.497459,-0.614314l0,0zm1.584838,5.324262l-3.080843,-0.711265l-0.177816,0.770211l3.080843,0.711265l0.177816,-0.770211l0,0zm-12.323373,0.770211l3.080843,-0.711265l-0.177816,-0.770211l-3.080843,0.711265l0.177816,0.770211l0,0zm0.909563,-5.480159l2.457241,1.989836l0.497459,-0.614306l-2.457241,-1.989844l-0.497459,0.614314l0,0zm9.510808,7.222443c0,-0.650873 -0.526295,-1.178513 -1.185706,-1.178513c-0.65485,0 -1.185706,0.534532 -1.185706,1.178513l0,1.534794l0,2.029517l-0.790471,0l0,-1.976177l0,-5.526465c0,-0.65862 -0.526295,-1.192536 -1.185706,-1.192536c-0.65485,0 -1.185706,0.526785 -1.185706,1.192536l0,8.133713c-1.627105,-1.739375 -3.769256,-3.651366 -4.647153,-2.768726c-0.859376,0.864016 1.355127,3.244882 4.447456,8.448052c1.393299,2.344378 3.156278,3.965356 6.128226,3.96572c3.274232,0 5.92853,-2.65429 5.92853,-5.92853l0,-2.571559l0,-3.747147c0,-0.65764 -0.526295,-1.190765 -1.185706,-1.190765c-0.65485,0 -1.185706,0.534722 -1.185706,1.190765l0,1.773286l0,0.197831l-0.790471,0l0,-1.835346l0,-0.938202c0,-0.651039 -0.526295,-1.178805 -1.185706,-1.178805c-0.65485,0 -1.185706,0.523718 -1.185706,1.178805l0,0.803853l0,1.179224l-0.790471,0l0,-1.179224l0,-1.594616l0,0z"/>
 </g>
</svg>