<?xml version="1.0" encoding="utf-8"?>
<!-- Generator: Adobe Illustrator 21.1.0, SVG Export Plug-In . SVG Version: 6.00 Build 0)  -->
<svg version="1.1" id="Layer_1" xmlns="http://www.w3.org/2000/svg" xmlns:xlink="http://www.w3.org/1999/xlink" x="0px" y="0px" viewBox="0 0 26 26" style="enable-background:new 0 0 26 26;" xml:space="preserve">
<style type="text/css">
    .st0{fill:#FFFFFF;}
</style>
<path class="st0" d="M20.6,8.1c-0.2-0.1-0.4,0-0.5,0.1c0,0.1-1.2,1.4-1.3,3.3c-0.1,1.2,0,2,0.4,2.5c0.2,0.2,0.4,0.3,0.8,0.3V19c0,0.2,0.2,0.4,0.4,0.4s0.4-0.2,0.4-0.4V8.5C20.8,8.3,20.7,8.1,20.6,8.1z"/>
<path class="st0" d="M13.4,8.5c-2.9,0-5.2,2.3-5.2,5.2c0,2.9,2.3,5.2,5.2,5.2s5.2-2.3,5.2-5.2C18.6,10.9,16.3,8.5,13.4,8.5z M17.6,13.8c0,2.3-1.9,4.2-4.2,4.2s-4.2-1.9-4.2-4.2c0-2.3,1.9-4.2,4.2-4.2S17.6,11.4,17.6,13.8z"/>
<path class="st0" d="M13.4,10c-2.1,0-3.8,1.7-3.8,3.8c0,2.1,1.7,3.8,3.8,3.8s3.8-1.7,3.8-3.8C17.1,11.7,15.4,10,13.4,10z"/>
<path class="st0" d="M7.9,8.2c-0.2,0-0.4,0.2-0.4,0.4V10H7.4V8.6c0-0.2-0.2-0.4-0.4-0.4c-0.2,0-0.4,0.2-0.4,0.4V10H6.5V8.6c0-0.2-0.2-0.4-0.4-0.4c-0.2,0-0.4,0.2-0.4,0.4v1.8c0,1.1,0.4,2,0.9,2.3V19c0,0.2,0.2,0.4,0.4,0.4c0.2,0,0.4-0.2,0.4-0.4v-6.3c0.6-0.3,0.9-1.2,0.9-2.3V8.6C8.4,8.4,8.2,8.2,7.9,8.2z"/>
</svg>
