<?xml version="1.0" encoding="utf-8"?>
<!-- Generator: Adobe Illustrator 21.1.0, SVG Export Plug-In . SVG Version: 6.00 Build 0)  -->
<svg version="1.1" id="Layer_1" xmlns="http://www.w3.org/2000/svg" xmlns:xlink="http://www.w3.org/1999/xlink" x="0px" y="0px"
     viewBox="0 0 180 180" style="enable-background:new 0 0 180 180;" xml:space="preserve">
<style type="text/css">
    .st0{fill:#FFFFFF;}
    .st1{fill:#CBDC4D;}
    .st2{fill:#898989;}
    .st3{fill:#5D5E5E;}
</style>
<g>
    <g>
        <circle class="st0" cx="98.4" cy="87.1" r="64.3"/>
        <path class="st1" d="M98.4,155.9c-38,0-68.8-30.9-68.8-68.8s30.9-68.8,68.8-68.8s68.8,30.9,68.8,68.8S136.3,155.9,98.4,155.9z
             M98.4,27.4c-32.9,0-59.7,26.8-59.7,59.7c0,32.9,26.8,59.7,59.7,59.7S158,120,158,87.1C158,54.2,131.3,27.4,98.4,27.4z"/>
    </g>
    <circle class="st2" cx="98.4" cy="86.4" r="51.5"/>
</g>
<polygon class="st2" points="14.9,152.3 25.4,162.3 50.8,136.6 56.9,148.1 72.8,105 29.6,120.1 41.3,127.1 "/>
<path class="st0" d="M25.4,163l-11.2-10.7l26.3-25l-12-7.2l45.1-15.8L57,149.4l-6.3-11.9L25.4,163z M15.6,152.3l9.8,9.3l25.5-25.8
    l5.9,11.1l15.1-41.1l-41.1,14.4l11.3,6.8L15.6,152.3z"/>
<g>
    <circle class="st3" cx="102.4" cy="51.3" r="9.4"/>
    <path class="st3" d="M83,73.2c0,0,1.6-3.5,1.8-4.4s28.1-3.1,28.1-3.1L100.4,118c0,0-0.4,1.7,0.9,2.4c1.1,0.6,1.7,0.3,2.5-0.3
        c1.9-1.5,4-3.9,4-3.9l2.7,3.8c0,0-4.4,5.8-9.6,8.6c-4.1,2.3-12.6,3.6-17.6,1.1c-4.9-2.4-5.4-5.7-2.9-16.3c2.2-9.4,7.5-33.6,8.9-39
        c0.2-0.6-0.3-1.2-0.9-1.2L83,73.2z"/>
</g>
<g>
    <circle class="st1" cx="101.3" cy="50" r="9.4"/>
    <path class="st1" d="M82.9,72.9c0,0,0.6-4.5,0.8-5.4s28.1-3.1,28.1-3.1l-12.5,52.3c0,0-0.4,1.7,0.9,2.4c1.1,0.6,1.7,0.3,2.5-0.3
        c1.9-1.5,4.6-3.8,4.6-3.8l2.4,3.5c0,0-4.8,5.9-10,8.8c-4.1,2.3-12.6,3.6-17.6,1.1c-4.9-2.4-5.4-5.7-2.9-16.3
        c2.2-9.4,8.3-32.1,9.7-37.5c0-0.1,0-0.4,0-0.7c-0.3-1-1.3-1.6-2.3-1.5L82.9,72.9z"/>
</g>
</svg>
