<svg width="12" height="17" xmlns="http://www.w3.org/2000/svg">
 <title>marker-15.svg</title>

 <g>
  <title>background</title>
  <rect x="-1" y="-1" width="3.19403" height="3.691542" id="canvas_background" fill="none"/>
 </g>
 <g>
  <title>Layer 1</title>
  <rect fill="none" x="-0.051151" width="19.335039" height="17.69821" id="svg_1" stroke="null"/>
  <path fill="#000" d="m6.02174,1.232737c-2.4324,0 -5.2703,1.4865 -5.2703,5.2703c0,2.5675 4.0541,8.2432 5.2703,9.7297c1.0811,-1.4865 5.2703,-7.027 5.2703,-9.7297c0,-3.7838 -2.8379,-5.2703 -5.2703,-5.2703z" stroke="#000" stroke-miterlimit="4" stroke-linejoin="round" id="svg_2"/>
  <path fill="#fdf376" d="m6.072891,1.283888c-2.4324,0 -5.2703,1.4865 -5.2703,5.2703c0,2.5675 4.0541,8.2432 5.2703,9.7297c1.0811,-1.4865 5.2703,-7.027 5.2703,-9.7297c0,-3.7838 -2.8379,-5.2703 -5.2703,-5.2703z" id="svg_3"/>
  <ellipse fill="#000000" stroke-width="null" stroke-opacity="null" cx="6.051153" cy="5.760229" id="svg_4" rx="1.867007" ry="1.892583" stroke="null"/>
 </g>
</svg>