<svg width="12" height="17" xmlns="http://www.w3.org/2000/svg">
 <title>marker-15.svg</title>

 <g>
  <title>background</title>
  <rect fill="none" id="canvas_background" height="19" width="14" y="-1" x="-1"/>
 </g>
 <g>
  <title>Layer 1</title>
  <rect stroke="null" id="svg_1" height="17.69821" width="19.335039" x="-0.051151" fill="none"/>
  <path id="svg_2" stroke-linejoin="round" stroke-miterlimit="4" stroke="#000" d="m6.02174,1.232737c-2.4324,0 -5.2703,1.4865 -5.2703,5.2703c0,2.5675 4.0541,8.2432 5.2703,9.7297c1.0811,-1.4865 5.2703,-7.027 5.2703,-9.7297c0,-3.7838 -2.8379,-5.2703 -5.2703,-5.2703z" fill="#000"/>
  <path id="svg_3" d="m6.072891,1.283888c-2.4324,0 -5.2703,1.4865 -5.2703,5.2703c0,2.5675 4.0541,8.2432 5.2703,9.7297c1.0811,-1.4865 5.2703,-7.027 5.2703,-9.7297c0,-3.7838 -2.8379,-5.2703 -5.2703,-5.2703z" fill="#b40219"/>
  <ellipse stroke="null" ry="1.892583" rx="1.867007" id="svg_4" cy="5.760229" cx="6.051153" stroke-opacity="null" stroke-width="null" fill="#000000"/>
 </g>
</svg>