<?xml version="1.0" encoding="utf-8"?>
<!-- Generator: Adobe Illustrator 20.0.0, SVG Export Plug-In . SVG Version: 6.00 Build 0)  -->
<svg version="1.1" id="Layer_1" xmlns="http://www.w3.org/2000/svg" xmlns:xlink="http://www.w3.org/1999/xlink" x="0px" y="0px"
	 viewBox="0 0 200 200" style="enable-background:new 0 0 200 200;" xml:space="preserve">
<style type="text/css">
	.st0{fill:#FFFFFF;}
	.st1{fill:#888888;}
	.st2{fill:#595A5C;}
	.st3{fill:#CBDB4F;}
</style>
<g>
	<path class="st0" d="M27.3,95.7c0-46.1,37.2-83.3,83.3-83.3s83.3,37.2,83.3,83.3S156.7,179,110.6,179S27.3,141,27.3,95.7"/>
	<path class="st1" d="M176.9,95.7c0,36.4-29.1,65.5-65.5,65.5C75,162,45.9,132.1,45.9,95.7S75,30.2,111.4,30.2
		C147,30.2,176.9,59.3,176.9,95.7"/>
	<path class="st2" d="M106.5,52.8c0,6.5,5.7,12.1,12.1,12.1s12.1-5.7,12.1-12.1c-0.8-8.1-4.9-12.1-12.1-12.1
		C112.2,40.7,106.5,46.3,106.5,52.8"/>
	<path class="st2" d="M126.8,133.7l-3.2,3.2c-1.6,2.4-3.2,3.2-4.9,3.2s-2.4-0.8-1.6-3.2v-0.8c0-0.8,0.8-1.6,0.8-2.4l15.4-63.1
		l-35.6,4L96,80.3c5.7,0.8,6.5,1.6,6.5,4.9c0,1.6-0.8,4-1.6,8.1l-9.7,40.4c-0.8,3.2-1.6,6.5-1.6,8.1c0,6.5,4.9,9.7,12.9,10.5
		c9.7,0.8,19.4-3.2,28.3-15.4L126.8,133.7z"/>
	<path class="st3" d="M104.9,50.4c0,6.5,5.7,12.1,12.1,12.1c6.5,0,12.1-5.7,12.1-12.1c-0.8-8.1-4.9-12.1-12.1-12.1
		C110.6,38.3,104.9,43.9,104.9,50.4"/>
	<path class="st3" d="M110.6,8.3C62.9,8.3,24,47.2,24,94.9s38.8,86.6,86.6,86.6s86.6-38,86.6-85.7C196.3,47.2,158.3,8.3,110.6,8.3
		 M110.6,170.1c-42.1,0-75.2-34-75.2-75.2c0-42.1,34-75.2,75.2-75.2c42.1,0,75.2,34,75.2,75.2C185,136.9,151.8,170.1,110.6,170.1"/>
	<path class="st3" d="M124.3,132.1l-2.4,3.2c-1.6,2.4-3.2,3.2-4.9,3.2c-1.6,0-2.4-0.8-1.6-3.2v-0.8c0-0.8,0.8-1.6,0.8-2.4L131.6,69
		l-36.4,4l-0.8,5.7c5.7,0.8,6.5,1.6,6.5,4.9c0,1.6-0.8,4-1.6,8.1l-9.7,40.4c-0.8,3.2-1.6,6.5-1.6,8.1c0,6.5,4.9,9.7,12.9,10.5
		c9.7,0.8,19.4-3.2,28.3-15.4L124.3,132.1z"/>
	<polygon class="st0" points="81.5,113.5 59.6,175 49.9,160.4 18.4,192.8 3,176.6 35.4,145 20,136.1 	"/>
	<polygon class="st1" points="78.2,116.7 58.8,170.9 50.7,156.4 18.4,188.7 6.2,176.6 38.6,144.2 23.2,136.1 	"/>
</g>
</svg>
