<?xml version="1.0" encoding="utf-8"?>
<!-- Generator: Adobe Illustrator 21.1.0, SVG Export Plug-In . SVG Version: 6.00 Build 0)  -->
<svg version="1.1" id="Layer_1" xmlns="http://www.w3.org/2000/svg" xmlns:xlink="http://www.w3.org/1999/xlink" x="0px" y="0px"
     viewBox="0 0 210 45" style="enable-background:new 0 0 210 45;" xml:space="preserve">
<style type="text/css">
    .st0{fill-rule:evenodd;clip-rule:evenodd;fill:#BED75A;}
    .st1{fill-rule:evenodd;clip-rule:evenodd;fill:#7C7F80;}
    .st2{fill:#8D8D8D;}
</style>
<path class="st0" d="M15.7,15.2l0-1.9h-5.4v21.3h5.3c0-3.4,0-8.6,0-12.3c0-2.6,1.7-4.3,4.2-4.3c2.3,0,4.2,1.6,4.2,4.1
    c0,3.3,0,8.1,0,12.5h5.2c0-2.4,0-8,0-12.5c0-2.6-0.3-4.7-0.7-5.7c-0.8-1.8-3-3.2-5.8-3.2C18.8,13.2,17.9,14.2,15.7,15.2z"/>
<path class="st1" d="M191.8,13.2l0,3.6c-1.7-1.2-1.8-2.4-4.8-3.5c-6.9-2.5-14.7,2.5-14.7,10.6c0,8,7.5,13.1,14.4,10.8
    c3-1,3.4-2.3,5.2-3.4l0,3.4h2.7l0-21.4H191.8z M175.1,23.6c0-10.5,16.8-11.4,16.8,0.3C191.9,35.6,175.1,35.4,175.1,23.6z"/>
<path class="st1" d="M84.4,13.5c-5.9-2.4-9.4,0.1-12.8,3.4l-0.1-3.7h-2.7v29.2h2.7l0-11.3c1.4,1.2,2.5,2.6,5,3.4
    c6.9,2.4,14.4-2.6,14.5-10.4C91.2,18.9,87.9,15,84.4,13.5z M81.4,32.4c-11,2.2-14.3-14.9-3-17c5-0.9,8.8,2.7,9.6,6.8
    C89.1,27.4,85.4,31.6,81.4,32.4z"/>
<path class="st1" d="M112.7,13.2l0,3.7c-1.8-1.5-2-2.5-4.9-3.6c-6.2-2.4-14.6,2.1-14.6,10.6c0,9.9,10.7,14.1,17.2,9.3
    c0.9-0.7,1.2-1.3,2.2-2l0.1,3.4h2.7V13.2H112.7z M106.1,32.4c-10.9,2-14.2-14.9-2.9-16.9c4.9-0.9,8.9,2.7,9.6,6.7
    C113.7,27.5,110.4,31.6,106.1,32.4z"/>
<path class="st1" d="M140.8,13.2h-2.7l-0.2,3.4c-3-2.3-5.9-5.6-12.4-3.2c-3.7,1.4-7,5.2-7,10.2c-0.1,5.4,3.1,8.7,6.9,10.3
    c2.1,0.9,5,1,7.3,0.3c3.3-1,4-2.5,5.2-3.3c1.6,12.4-13.9,11.1-16,5.3l-3.1,0c2.5,8.3,15.2,8.2,19.3,3.7c2.6-2.8,2.6-7.2,2.6-11.9
    C140.8,24.2,140.8,16.6,140.8,13.2z M131.5,31.8c-11.7,1.9-14.1-14-3.1-16.3C139.2,13.4,142.2,30.1,131.5,31.8z"/>
<path class="st0" d="M32.7,13.2h-1.9v4.6h1.9v16.8l5.4,0V17.8h3.7v-4.6h-3.7c0-1.4,0-2.3,0-3c0-1.3,1.4-1.1,3.7-1.1V4.5
    c-2.5,0-6-0.5-7.5,1c-1,0.8-1.5,2.1-1.5,3.8C32.8,10.6,32.7,12,32.7,13.2z"/>
<path class="st1" d="M166.4,21.4c0,1.8,0,10.5,0,13.1h2.8V21.3c0.3-7.2-6.2-10.4-11.7-7.8c-2.2,1-2.8,2.5-4,3.2v-3.5h-2.8v21.4
    l2.7,0c0-4,0.1-8.5,0.1-12.3c0-1.7,1-3.2,2.1-4.5C159.5,13.9,166.6,14.2,166.4,21.4z"/>
<path class="st0" d="M64.7,21.2c-1.2-5.1-6.9-10-13.6-8.2c-2.9,0.8-5,2.2-6.6,4.6c-5.4,7.8,1.3,19.9,12.2,17.2
    C61.9,33.5,66.4,28,64.7,21.2z M55.4,29.9c-7.8,2-10.4-9.8-3.2-11.9C60.4,15.7,62.2,28.2,55.4,29.9z"/>
<rect x="1" y="13.2" class="st0" width="5.4" height="21.3"/>
<path class="st1" d="M198.7,30.2c-1.1,0.5-1.5,1.2-2,2.1c1.5,1.3,1.6,1.9,3.9,2.6c6.6,2,11.4-5.1,7.5-9.7c-1.8-2.1-6.9-3.6-7.8-5.8
    c-1.6-4.2,4.7-5.3,7.3-1.9c0.7-0.5,1.3-1,1.7-1.8c-6.4-7.7-16.5,1.4-9.3,7.4c1.9,1.6,7.2,2.9,6.8,6.3c-0.2,1.8-1.7,3-3.5,3.1
    C201,32.7,199.5,31.4,198.7,30.2z"/>
<polygon class="st1" points="144.3,33.6 144.3,34.6 147.1,34.6 147.1,33.6 147.1,13.2 144.3,13.2 "/>
<path class="st1" d="M144.7,4.7c-2.9,1.4-0.6,5.4,2.2,3.9C149,7.5,147.7,3.3,144.7,4.7z"/>
<circle class="st0" cx="4.1" cy="7.9" r="3.5"/>
<polygon class="st2" points="106.6,5.3 110,5.3 105.6,10 103.7,10 "/>
</svg>
