<svg xmlns="http://www.w3.org/2000/svg" width="89" height="165" viewBox="0 0 89 165"><path d="M13.6 10.6c1.1 2.9 4.4 4.5 7.3 3.4s4.5-4.4 3.4-7.3c-1.1-3-4.4-4.5-7.3-3.4C14 4.4 12.5 7.7 13.6 10.6M12 8.6c0 3.1-2.5 5.7-5.7 5.7 -3.1 0-5.7-2.6-5.7-5.7s2.5-5.7 5.7-5.7C9.5 2.9 12 5.5 12 8.6M13.6 27.2c1.1 2.9 4.4 4.5 7.3 3.4s4.5-4.4 3.4-7.3c-1.1-3-4.4-4.5-7.3-3.4C14 21 12.5 24.2 13.6 27.2M12 25.2c0 3.1-2.5 5.7-5.7 5.7 -3.1 0-5.7-2.6-5.7-5.7 0-3.1 2.5-5.7 5.7-5.7C9.5 19.5 12 22 12 25.2M13.6 43.7c1.1 2.9 4.4 4.5 7.3 3.4s4.5-4.4 3.4-7.3c-1.1-3-4.4-4.5-7.3-3.4C14 37.5 12.5 40.8 13.6 43.7M12 41.7c0 3.1-2.5 5.7-5.7 5.7 -3.1 0-5.7-2.6-5.7-5.7 0-3.1 2.5-5.7 5.7-5.7C9.5 36.1 12 38.6 12 41.7M13.6 60.3c1.1 2.9 4.4 4.5 7.3 3.4 2.9-1.1 4.5-4.4 3.4-7.3 -1.1-3-4.4-4.5-7.3-3.4C14 54.1 12.5 57.3 13.6 60.3M12 58.3c0 3.1-2.5 5.7-5.7 5.7 -3.1 0-5.7-2.6-5.7-5.7 0-3.1 2.5-5.7 5.7-5.7C9.5 52.6 12 55.2 12 58.3M13.6 76.9c1.1 2.9 4.4 4.5 7.3 3.4 2.9-1.1 4.5-4.4 3.4-7.3 -1.1-3-4.4-4.5-7.3-3.4C14 70.6 12.5 73.9 13.6 76.9M12 74.9c0 3.1-2.5 5.7-5.7 5.7 -3.1 0-5.7-2.6-5.7-5.7s2.5-5.7 5.7-5.7C9.5 69.2 12 71.7 12 74.9M13.6 93.4c1.1 2.9 4.4 4.5 7.3 3.4 2.9-1.1 4.5-4.4 3.4-7.3 -1.1-3-4.4-4.5-7.3-3.4C14 87.2 12.5 90.5 13.6 93.4M12 91.4c0 3.1-2.5 5.7-5.7 5.7 -3.1 0-5.7-2.6-5.7-5.7 0-3.1 2.5-5.7 5.7-5.7C9.5 85.7 12 88.3 12 91.4M13.6 110c1.1 2.9 4.4 4.5 7.3 3.4 2.9-1.1 4.5-4.4 3.4-7.3 -1.1-3-4.4-4.5-7.3-3.4C14 103.7 12.5 107 13.6 110M12 108c0 3.1-2.5 5.7-5.7 5.7 -3.1 0-5.7-2.6-5.7-5.7s2.5-5.7 5.7-5.7C9.5 102.3 12 104.8 12 108M13.6 126.5c1.1 2.9 4.4 4.5 7.3 3.4 2.9-1.1 4.5-4.4 3.4-7.3 -1.1-3-4.4-4.5-7.3-3.4C14 120.3 12.5 123.6 13.6 126.5M12 124.5c0 3.1-2.5 5.7-5.7 5.7 -3.1 0-5.7-2.6-5.7-5.7s2.5-5.7 5.7-5.7C9.5 118.8 12 121.4 12 124.5M13.6 143.1c1.1 2.9 4.4 4.5 7.3 3.4s4.5-4.4 3.4-7.3c-1.1-3-4.4-4.5-7.3-3.4C14 136.9 12.5 140.1 13.6 143.1M12 141.1c0 3.1-2.5 5.7-5.7 5.7 -3.1 0-5.7-2.6-5.7-5.7 0-3.1 2.5-5.7 5.7-5.7C9.5 135.4 12 137.9 12 141.1M13.6 159.6c1.1 2.9 4.4 4.5 7.3 3.4s4.5-4.4 3.4-7.3c-1.1-3-4.4-4.5-7.3-3.4C14 153.4 12.5 156.7 13.6 159.6M12 157.6c0 3.1-2.5 5.7-5.7 5.7 -3.1 0-5.7-2.6-5.7-5.7 0-3.1 2.5-5.7 5.7-5.7C9.5 152 12 154.5 12 157.6" fill="#FFF"/><path d="M4.4 3c2.4-0.3 9.1-0.5 7.3 9.2l2.1-0.2c-0.9-6 1-9 7-9.3C10.8-2.8 5.1 2.9 4.4 3M4.4 19.5c2.4-0.3 9.1-0.5 7.3 9.2l2.1-0.2c-0.9-6 1-9 7-9.3C10.8 13.7 5.1 19.4 4.4 19.5M4.4 36.1c2.4-0.3 9.1-0.5 7.3 9.2l2.1-0.2c-0.9-6 1-9 7-9.3C10.8 30.3 5.1 36 4.4 36.1M4.4 52.6c2.4-0.3 9.1-0.5 7.3 9.2l2.1-0.2c-0.9-6 1-9 7-9.3C10.8 46.8 5.1 52.5 4.4 52.6M4.4 69.2c2.4-0.3 9.1-0.5 7.3 9.2l2.1-0.2c-0.9-6 1-9 7-9.3C10.8 63.4 5.1 69.1 4.4 69.2M4.4 85.7c2.4-0.3 9.1-0.5 7.3 9.2l2.1-0.2c-0.9-6 1-9 7-9.3C10.8 79.9 5.1 85.6 4.4 85.7M4.4 102.3c2.4-0.3 9.1-0.5 7.3 9.2l2.1-0.2c-0.9-6 1-9 7-9.3C10.8 96.5 5.1 102.2 4.4 102.3M4.4 118.9c2.4-0.3 9.1-0.5 7.3 9.2l2.1-0.2c-0.9-6 1-9 7-9.3C10.8 113.1 5.1 118.8 4.4 118.9M4.4 135.4c2.4-0.3 9.1-0.5 7.3 9.2l2.1-0.2c-0.9-6 1-9 7-9.3C10.8 129.6 5.1 135.3 4.4 135.4M4.4 152c2.4-0.3 9.1-0.5 7.3 9.2l2.1-0.2c-0.9-6 1-9 7-9.3C10.8 146.2 5.1 151.9 4.4 152" fill="#FCDE8D"/><path d="M7.3 58.2c0 0.6-0.5 1.1-1.1 1.1 -0.6 0-1.1-0.5-1.1-1.1 0-0.6 0.5-1.1 1.1-1.1C6.8 57.2 7.3 57.7 7.3 58.2M7.3 8.6c0 0.6-0.5 1.1-1.1 1.1 -0.6 0-1.1-0.5-1.1-1.1s0.5-1.1 1.1-1.1C6.8 7.5 7.3 8 7.3 8.6M7.3 25.1c0 0.6-0.5 1.1-1.1 1.1 -0.6 0-1.1-0.5-1.1-1.1S5.6 24 6.2 24C6.8 24.1 7.3 24.5 7.3 25.1M7.3 41.7c0 0.6-0.5 1.1-1.1 1.1 -0.6 0-1.1-0.5-1.1-1.1 0-0.6 0.5-1.1 1.1-1.1C6.8 40.6 7.3 41.1 7.3 41.7M7.3 74.8c0 0.6-0.5 1.1-1.1 1.1 -0.6 0-1.1-0.5-1.1-1.1 0-0.6 0.5-1.1 1.1-1.1C6.8 73.7 7.3 74.2 7.3 74.8M7.3 91.4c0 0.6-0.5 1.1-1.1 1.1 -0.6 0-1.1-0.5-1.1-1.1C5.1 90.8 5.6 90.3 6.2 90.3 6.8 90.3 7.3 90.8 7.3 91.4M7.3 107.9c0 0.6-0.5 1.1-1.1 1.1 -0.6 0-1.1-0.5-1.1-1.1 0-0.6 0.5-1.1 1.1-1.1C6.8 106.9 7.3 107.3 7.3 107.9M7.3 124.5c0 0.6-0.5 1.1-1.1 1.1 -0.6 0-1.1-0.5-1.1-1.1s0.5-1.1 1.1-1.1C6.8 123.4 7.3 123.9 7.3 124.5M7.3 141c0 0.6-0.5 1.1-1.1 1.1 -0.6 0-1.1-0.5-1.1-1.1s0.5-1.1 1.1-1.1C6.8 140 7.3 140.4 7.3 141M7.3 157.6c0 0.6-0.5 1.1-1.1 1.1 -0.6 0-1.1-0.5-1.1-1.1 0-0.6 0.5-1.1 1.1-1.1C6.8 156.5 7.3 157 7.3 157.6" fill="#BB2536"/><path d="M24 4.9c0.3-1.3 1.2-2.5 1.2-2.5H21C18.7 0.8 15.8 0 12.6 0 9.3 0 6.3 0.8 4 2.4H0c0 0 0.9 1.3 1.2 2.5C0.5 5.9 0 7.2 0 8.6 0 12.1 2.8 15 6.3 15c2 0 3.8-0.9 4.9-2.4l1.3 2 1.4-2c0.6 0.8 1.4 1.4 2.3 1.8 1.5 0.7 3.3 0.8 4.8 0.2 3.3-1.2 5-4.9 3.7-8.1C24.7 5.9 24.4 5.3 24 4.9M18.7 2.3c-0.7 0-1.3 0.1-2 0.4 -1.6 0.6-2.9 1.8-3.6 3.3 -0.3 0.7-0.5 1.4-0.6 2.2C12.3 5 9.6 2.4 6.3 2.3c1.8-0.8 3.9-1.2 6.2-1.2C14.9 1.1 16.9 1.5 18.7 2.3M6.3 13.7c-2.8 0-5.1-2.3-5.1-5 0-2.8 2.3-5.1 5.1-5.1 2.8 0 5.1 2.3 5.1 5.1C11.4 11.4 9.1 13.7 6.3 13.7M20.7 13.4c-1.3 0.5-2.6 0.4-3.9-0.2 -1.2-0.6-2.2-1.6-2.6-2.8l0 0c-0.5-1.3-0.4-2.6 0.1-3.9 0.6-1.2 1.6-2.2 2.8-2.6 2.6-1 5.5 0.4 6.5 3C24.7 9.5 23.3 12.4 20.7 13.4M6.3 5.4c-1.7 0-3.1 1.4-3.1 3.1s1.4 3.1 3.1 3.1c1.7 0 3.1-1.4 3.1-3.1S8 5.4 6.3 5.4M6.3 10.6c-1.1 0-2.1-0.9-2.1-2s0.9-2 2.1-2c1.1 0 2 0.9 2 2S7.4 10.6 6.3 10.6M18.9 5.4c-1.7 0-3.1 1.4-3.1 3.1s1.4 3.1 3.1 3.1c1.7 0 3.1-1.4 3.1-3.1C22.1 6.8 20.7 5.4 18.9 5.4M18.9 10.6c-1.1 0-2.1-0.9-2.1-2s0.9-2 2.1-2c1.1 0 2 0.9 2 2C21 9.7 20.1 10.6 18.9 10.6M24 21.4c0.3-1.3 1.2-2.5 1.2-2.5H21c-2.4-1.5-5.2-2.3-8.4-2.3 -3.3 0-6.3 0.8-8.6 2.4H0c0 0 0.9 1.3 1.2 2.5 -0.8 1-1.2 2.3-1.2 3.7 0 3.5 2.8 6.3 6.3 6.3 2 0 3.8-0.9 4.9-2.4l1.3 2 1.4-2c0.6 0.8 1.4 1.4 2.3 1.8 1.5 0.7 3.3 0.8 4.8 0.2 3.3-1.2 5-4.9 3.7-8.1C24.7 22.4 24.4 21.9 24 21.4M18.7 18.9c-0.7 0-1.3 0.1-2 0.4 -1.6 0.6-2.9 1.8-3.6 3.3 -0.3 0.7-0.5 1.4-0.6 2.2 -0.2-3.2-2.9-5.8-6.2-5.9 1.8-0.8 3.9-1.2 6.2-1.2C14.9 17.7 16.9 18.1 18.7 18.9M6.3 30.2c-2.8 0-5.1-2.3-5.1-5 0-2.8 2.3-5.1 5.1-5.1 2.8 0 5.1 2.3 5.1 5.1C11.4 28 9.1 30.2 6.3 30.2M20.7 29.9c-1.3 0.5-2.6 0.4-3.9-0.2 -1.2-0.6-2.2-1.6-2.6-2.8l0 0c-0.5-1.3-0.4-2.6 0.1-3.9 0.6-1.2 1.6-2.2 2.8-2.6 2.6-1 5.5 0.4 6.5 3C24.7 26.1 23.3 29 20.7 29.9M6.3 22c-1.7 0-3.1 1.4-3.1 3.1 0 1.7 1.4 3.1 3.1 3.1 1.7 0 3.1-1.4 3.1-3.1C9.4 23.4 8 22 6.3 22M6.3 27.2c-1.1 0-2.1-0.9-2.1-2 0-1.1 0.9-2 2.1-2 1.1 0 2 0.9 2 2C8.3 26.3 7.4 27.2 6.3 27.2M18.9 22c-1.7 0-3.1 1.4-3.1 3.1 0 1.7 1.4 3.1 3.1 3.1 1.7 0 3.1-1.4 3.1-3.1C22.1 23.4 20.7 22 18.9 22M18.9 27.2c-1.1 0-2.1-0.9-2.1-2 0-1.1 0.9-2 2.1-2 1.1 0 2 0.9 2 2C21 26.3 20.1 27.2 18.9 27.2M24 38c0.3-1.3 1.2-2.5 1.2-2.5H21c-2.4-1.5-5.2-2.3-8.4-2.3 -3.3 0-6.3 0.8-8.6 2.4H0c0 0 0.9 1.3 1.2 2.5C0.5 39 0 40.3 0 41.7 0 45.2 2.8 48 6.3 48c2 0 3.8-0.9 4.9-2.4l1.3 2 1.4-2c0.6 0.8 1.4 1.4 2.3 1.8 1.5 0.7 3.3 0.8 4.8 0.2 3.3-1.2 5-4.9 3.7-8.1C24.7 39 24.4 38.5 24 38M18.7 35.4c-0.7 0-1.3 0.1-2 0.4 -1.6 0.6-2.9 1.8-3.6 3.3 -0.3 0.7-0.5 1.4-0.6 2.2 -0.2-3.2-2.9-5.8-6.2-5.9 1.8-0.8 3.9-1.2 6.2-1.2C14.9 34.2 16.9 34.6 18.7 35.4M6.3 46.8c-2.8 0-5.1-2.3-5.1-5 0-2.8 2.3-5.1 5.1-5.1 2.8 0 5.1 2.3 5.1 5.1C11.4 44.5 9.1 46.8 6.3 46.8M20.7 46.5c-1.3 0.5-2.6 0.4-3.9-0.2 -1.2-0.6-2.2-1.6-2.6-2.8l0 0c-0.5-1.3-0.4-2.6 0.1-3.9 0.6-1.2 1.6-2.2 2.8-2.6 2.6-1 5.5 0.4 6.5 3C24.7 42.6 23.3 45.5 20.7 46.5M6.3 38.6c-1.7 0-3.1 1.4-3.1 3.1 0 1.7 1.4 3.1 3.1 3.1 1.7 0 3.1-1.4 3.1-3.1C9.4 40 8 38.6 6.3 38.6M6.3 43.7c-1.1 0-2.1-0.9-2.1-2 0-1.1 0.9-2 2.1-2 1.1 0 2 0.9 2 2C8.3 42.8 7.4 43.7 6.3 43.7M18.9 38.6c-1.7 0-3.1 1.4-3.1 3.1 0 1.7 1.4 3.1 3.1 3.1 1.7 0 3.1-1.4 3.1-3.1C22.1 40 20.7 38.6 18.9 38.6M18.9 43.7c-1.1 0-2.1-0.9-2.1-2 0-1.1 0.9-2 2.1-2 1.1 0 2 0.9 2 2C21 42.8 20.1 43.7 18.9 43.7M24 54.6c0.3-1.3 1.2-2.5 1.2-2.5L21 52c-2.4-1.5-5.2-2.3-8.4-2.3 -3.3 0-6.3 0.8-8.6 2.4H0c0 0 0.9 1.3 1.2 2.5 -0.8 1-1.2 2.3-1.2 3.7 0 3.5 2.8 6.3 6.3 6.3 2 0 3.8-0.9 4.9-2.4l1.3 2 1.4-2c0.6 0.8 1.4 1.4 2.3 1.8 1.5 0.7 3.3 0.8 4.8 0.2 3.3-1.2 5-4.9 3.7-8.1C24.7 55.5 24.4 55 24 54.6M18.7 52c-0.7 0-1.3 0.1-2 0.4 -1.6 0.6-2.9 1.8-3.6 3.3 -0.3 0.7-0.5 1.4-0.6 2.2 -0.1-3.3-2.8-5.9-6-5.9 1.8-0.8 3.9-1.2 6.2-1.2C14.9 50.8 16.9 51.2 18.7 52M6.3 63.3c-2.8 0-5.1-2.3-5.1-5 0-2.8 2.3-5.1 5.1-5.1 2.8 0 5.1 2.3 5.1 5.1C11.4 61.1 9.1 63.3 6.3 63.3M20.7 63.1c-1.3 0.5-2.6 0.4-3.9-0.2 -1.2-0.6-2.2-1.6-2.6-2.8l0 0c-0.5-1.3-0.4-2.6 0.1-3.9 0.6-1.2 1.6-2.2 2.8-2.6 2.6-1 5.5 0.4 6.5 3C24.7 59.2 23.3 62.1 20.7 63.1M6.3 55.1c-1.7 0-3.1 1.4-3.1 3.1 0 1.7 1.4 3.1 3.1 3.1 1.7 0 3.1-1.4 3.1-3.1C9.4 56.5 8 55.1 6.3 55.1M6.3 60.3c-1.1 0-2.1-0.9-2.1-2 0-1.1 0.9-2 2.1-2 1.1 0 2 0.9 2 2C8.3 59.4 7.4 60.3 6.3 60.3M18.9 55.1c-1.7 0-3.1 1.4-3.1 3.1 0 1.7 1.4 3.1 3.1 3.1 1.7 0 3.1-1.4 3.1-3.1C22.1 56.5 20.7 55.1 18.9 55.1M18.9 60.3c-1.1 0-2.1-0.9-2.1-2 0-1.1 0.9-2 2.1-2 1.1 0 2 0.9 2 2C21 59.4 20.1 60.3 18.9 60.3M24 71.1c0.3-1.3 1.2-2.5 1.2-2.5H21c-2.4-1.5-5.2-2.3-8.4-2.3 -3.3 0-6.3 0.8-8.6 2.4H0c0 0 0.9 1.3 1.2 2.5 -0.8 1-1.2 2.3-1.2 3.7 0 3.5 2.8 6.3 6.3 6.3 2 0 3.8-0.9 4.9-2.4l1.3 2 1.4-2c0.6 0.8 1.4 1.4 2.3 1.8 1.5 0.7 3.3 0.8 4.8 0.2 3.3-1.2 5-4.9 3.7-8.1C24.7 72.1 24.4 71.6 24 71.1M18.7 68.6c-0.7 0-1.3 0.1-2 0.4 -1.6 0.6-2.9 1.8-3.6 3.3 -0.3 0.7-0.5 1.4-0.6 2.2 -0.2-3.2-2.9-5.8-6.2-5.9 1.8-0.8 3.9-1.2 6.2-1.2C14.9 67.3 16.9 67.7 18.7 68.6M6.3 79.9c-2.8 0-5.1-2.3-5.1-5 0-2.8 2.3-5.1 5.1-5.1 2.8 0 5.1 2.3 5.1 5.1C11.4 77.6 9.1 79.9 6.3 79.9M20.7 79.6c-1.3 0.5-2.6 0.4-3.9-0.2 -1.2-0.6-2.2-1.6-2.6-2.8l0 0c-0.5-1.3-0.4-2.6 0.1-3.9 0.6-1.2 1.6-2.2 2.8-2.6 2.6-1 5.5 0.4 6.5 3C24.7 75.7 23.3 78.7 20.7 79.6M6.3 71.7c-1.7 0-3.1 1.4-3.1 3.1 0 1.7 1.4 3.1 3.1 3.1 1.7 0 3.1-1.4 3.1-3.1C9.4 73.1 8 71.7 6.3 71.7M6.3 76.8c-1.1 0-2.1-0.9-2.1-2 0-1.1 0.9-2 2.1-2 1.1 0 2 0.9 2 2C8.3 75.9 7.4 76.8 6.3 76.8M18.9 71.7c-1.7 0-3.1 1.4-3.1 3.1 0 1.7 1.4 3.1 3.1 3.1 1.7 0 3.1-1.4 3.1-3.1C22.1 73.1 20.7 71.7 18.9 71.7M18.9 76.8c-1.1 0-2.1-0.9-2.1-2 0-1.1 0.9-2 2.1-2 1.1 0 2 0.9 2 2C21 75.9 20.1 76.8 18.9 76.8M24 87.7c0.3-1.3 1.2-2.5 1.2-2.5H21c-2.4-1.5-5.2-2.3-8.4-2.3 -3.3 0-6.3 0.8-8.6 2.4H0c0 0 0.9 1.3 1.2 2.5C0.5 88.7 0 90 0 91.4c0 3.5 2.8 6.3 6.3 6.3 2 0 3.8-0.9 4.9-2.4l1.3 2 1.4-2c0.6 0.8 1.4 1.4 2.3 1.8 1.5 0.7 3.3 0.8 4.8 0.2 3.3-1.2 5-4.9 3.7-8.1C24.7 88.7 24.4 88.1 24 87.7M18.7 85.1c-0.7 0-1.3 0.1-2 0.4 -1.6 0.6-2.9 1.8-3.6 3.3 -0.3 0.7-0.5 1.4-0.6 2.2 -0.2-3.2-2.9-5.8-6.2-5.9 1.8-0.8 3.9-1.2 6.2-1.2C14.9 83.9 16.9 84.3 18.7 85.1M6.3 96.5c-2.8 0-5.1-2.3-5.1-5 0-2.8 2.3-5.1 5.1-5.1 2.8 0 5.1 2.3 5.1 5.1C11.4 94.2 9.1 96.5 6.3 96.5M20.7 96.2c-1.3 0.5-2.6 0.4-3.9-0.2 -1.2-0.6-2.2-1.6-2.6-2.8l0 0c-0.5-1.3-0.4-2.6 0.1-3.9 0.6-1.2 1.6-2.2 2.8-2.6 2.6-1 5.5 0.4 6.5 3C24.7 92.3 23.3 95.2 20.7 96.2M6.3 88.2c-1.7 0-3.1 1.4-3.1 3.1S4.6 94.4 6.3 94.4C8 94.4 9.4 93 9.4 91.3S8 88.2 6.3 88.2M6.3 93.4c-1.1 0-2.1-0.9-2.1-2 0-1.1 0.9-2 2.1-2 1.1 0 2 0.9 2 2C8.3 92.5 7.4 93.4 6.3 93.4M18.9 88.2c-1.7 0-3.1 1.4-3.1 3.1s1.4 3.1 3.1 3.1c1.7 0 3.1-1.4 3.1-3.1C22.1 89.6 20.7 88.2 18.9 88.2M18.9 93.4c-1.1 0-2.1-0.9-2.1-2 0-1.1 0.9-2 2.1-2 1.1 0 2 0.9 2 2C21 92.5 20.1 93.4 18.9 93.4M24 104.2c0.3-1.3 1.2-2.5 1.2-2.5H21c-2.4-1.5-5.2-2.3-8.4-2.3 -3.3 0-6.3 0.8-8.6 2.4H0c0 0 0.9 1.3 1.2 2.5 -0.8 1-1.2 2.3-1.2 3.7 0 3.5 2.8 6.3 6.3 6.3 2 0 3.8-0.9 4.9-2.4l1.3 2 1.4-2c0.6 0.8 1.4 1.4 2.3 1.8 1.5 0.7 3.3 0.8 4.8 0.2 3.3-1.2 5-4.9 3.7-8.1C24.7 105.2 24.4 104.7 24 104.2M18.7 101.7c-0.7 0-1.3 0.1-2 0.4 -1.6 0.6-2.9 1.8-3.6 3.3 -0.3 0.7-0.5 1.4-0.6 2.2 -0.2-3.2-2.9-5.8-6.2-5.9 1.8-0.8 3.9-1.2 6.2-1.2C14.9 100.5 16.9 100.9 18.7 101.7M6.3 113c-2.8 0-5.1-2.3-5.1-5 0-2.8 2.3-5.1 5.1-5.1 2.8 0 5.1 2.3 5.1 5.1S9.1 113 6.3 113M20.7 112.7c-1.3 0.5-2.6 0.4-3.9-0.2 -1.2-0.6-2.2-1.6-2.6-2.8l0 0c-0.5-1.3-0.4-2.6 0.1-3.9 0.6-1.2 1.6-2.2 2.8-2.6 2.6-1 5.5 0.4 6.5 3C24.7 108.9 23.3 111.8 20.7 112.7M6.3 104.8c-1.7 0-3.1 1.4-3.1 3.1 0 1.7 1.4 3.1 3.1 3.1 1.7 0 3.1-1.4 3.1-3.1C9.4 106.2 8 104.8 6.3 104.8M6.3 110c-1.1 0-2.1-0.9-2.1-2s0.9-2 2.1-2c1.1 0 2 0.9 2 2C8.3 109 7.4 110 6.3 110M18.9 104.8c-1.7 0-3.1 1.4-3.1 3.1 0 1.7 1.4 3.1 3.1 3.1 1.7 0 3.1-1.4 3.1-3.1C22.1 106.2 20.7 104.8 18.9 104.8M18.9 110c-1.1 0-2.1-0.9-2.1-2s0.9-2 2.1-2c1.1 0 2 0.9 2 2C21 109 20.1 110 18.9 110M24 120.8c0.3-1.3 1.2-2.5 1.2-2.5H21c-2.4-1.5-5.2-2.3-8.4-2.3 -3.3 0-6.3 0.8-8.6 2.4H0c0 0 0.9 1.3 1.2 2.5 -0.8 1-1.2 2.3-1.2 3.7 0 3.5 2.8 6.3 6.3 6.3 2 0 3.8-0.9 4.9-2.4l1.3 2 1.4-2c0.6 0.8 1.4 1.4 2.3 1.8 1.5 0.7 3.3 0.8 4.8 0.2 3.3-1.2 5-4.9 3.7-8.1C24.7 121.8 24.4 121.3 24 120.8M18.7 118.2c-0.7 0-1.3 0.1-2 0.4 -1.6 0.6-2.9 1.8-3.6 3.3 -0.3 0.7-0.5 1.4-0.6 2.2 -0.2-3.2-2.9-5.8-6.2-5.9 1.8-0.8 3.9-1.2 6.2-1.2C14.9 117 16.9 117.4 18.7 118.2M6.3 129.6c-2.8 0-5.1-2.3-5.1-5 0-2.8 2.3-5.1 5.1-5.1 2.8 0 5.1 2.3 5.1 5.1C11.4 127.3 9.1 129.6 6.3 129.6M20.7 129.3c-1.3 0.5-2.6 0.4-3.9-0.2 -1.2-0.6-2.2-1.6-2.6-2.8l0 0c-0.5-1.3-0.4-2.6 0.1-3.9 0.6-1.2 1.6-2.2 2.8-2.6 2.6-1 5.5 0.4 6.5 3C24.7 125.4 23.3 128.3 20.7 129.3M6.3 121.3c-1.7 0-3.1 1.4-3.1 3.1 0 1.7 1.4 3.1 3.1 3.1 1.7 0 3.1-1.4 3.1-3.1C9.4 122.7 8 121.3 6.3 121.3M6.3 126.5c-1.1 0-2.1-0.9-2.1-2s0.9-2 2.1-2c1.1 0 2 0.9 2 2S7.4 126.5 6.3 126.5M18.9 121.3c-1.7 0-3.1 1.4-3.1 3.1 0 1.7 1.4 3.1 3.1 3.1 1.7 0 3.1-1.4 3.1-3.1C22.1 122.7 20.7 121.3 18.9 121.3M18.9 126.5c-1.1 0-2.1-0.9-2.1-2s0.9-2 2.1-2c1.1 0 2 0.9 2 2C21 125.6 20.1 126.5 18.9 126.5M24 137.3c0.3-1.3 1.2-2.5 1.2-2.5H21c-2.4-1.5-5.2-2.3-8.4-2.3 -3.3 0-6.3 0.8-8.6 2.4H0c0 0 0.9 1.3 1.2 2.5 -0.8 1-1.2 2.3-1.2 3.7 0 3.5 2.8 6.3 6.3 6.3 2 0 3.8-0.9 4.9-2.4l1.3 2 1.4-2c0.6 0.8 1.4 1.4 2.3 1.8 1.5 0.7 3.3 0.8 4.8 0.2 3.3-1.2 5-4.9 3.7-8.1C24.7 138.3 24.4 137.8 24 137.3M18.7 134.8c-0.7 0-1.3 0.1-2 0.4 -1.6 0.6-2.9 1.8-3.6 3.3 -0.3 0.7-0.5 1.4-0.6 2.2 -0.2-3.2-2.9-5.8-6.2-5.9 1.8-0.8 3.9-1.2 6.2-1.2C14.9 133.6 16.9 134 18.7 134.8M6.3 146.1c-2.8 0-5.1-2.3-5.1-5 0-2.8 2.3-5.1 5.1-5.1 2.8 0 5.1 2.3 5.1 5.1C11.4 143.9 9.1 146.1 6.3 146.1M20.7 145.8c-1.3 0.5-2.6 0.4-3.9-0.2 -1.2-0.6-2.2-1.6-2.6-2.8l0 0c-0.5-1.3-0.4-2.6 0.1-3.9 0.6-1.2 1.6-2.2 2.8-2.6 2.6-1 5.5 0.4 6.5 3C24.7 142 23.3 144.9 20.7 145.8M6.3 137.9c-1.7 0-3.1 1.4-3.1 3.1s1.4 3.1 3.1 3.1c1.7 0 3.1-1.4 3.1-3.1S8 137.9 6.3 137.9M6.3 143.1c-1.1 0-2.1-0.9-2.1-2 0-1.1 0.9-2 2.1-2 1.1 0 2 0.9 2 2C8.3 142.2 7.4 143.1 6.3 143.1M18.9 137.9c-1.7 0-3.1 1.4-3.1 3.1s1.4 3.1 3.1 3.1c1.7 0 3.1-1.4 3.1-3.1C22.1 139.3 20.7 137.9 18.9 137.9M18.9 143.1c-1.1 0-2.1-0.9-2.1-2 0-1.1 0.9-2 2.1-2 1.1 0 2 0.9 2 2C21 142.2 20.1 143.1 18.9 143.1M24 153.9c0.3-1.3 1.2-2.5 1.2-2.5H21c-2.4-1.5-5.2-2.3-8.4-2.3 -3.3 0-6.3 0.8-8.6 2.4H0c0 0 0.9 1.3 1.2 2.5 -0.8 1-1.2 2.3-1.2 3.7 0 3.5 2.8 6.3 6.3 6.3 2 0 3.8-0.9 4.9-2.4l1.3 2 1.4-2c0.6 0.8 1.4 1.4 2.3 1.8 1.5 0.7 3.3 0.8 4.8 0.2 3.3-1.2 5-4.9 3.7-8.1C24.7 154.9 24.4 154.4 24 153.9M18.7 151.3c-0.7 0-1.3 0.1-2 0.4 -1.6 0.6-2.9 1.8-3.6 3.3 -0.3 0.7-0.5 1.4-0.6 2.2 -0.2-3.2-2.9-5.8-6.2-5.9 1.8-0.8 3.9-1.2 6.2-1.2C14.9 150.1 16.9 150.5 18.7 151.3M6.3 162.7c-2.8 0-5.1-2.3-5.1-5 0-2.8 2.3-5.1 5.1-5.1 2.8 0 5.1 2.3 5.1 5.1C11.4 160.4 9.1 162.7 6.3 162.7M20.7 162.4c-1.3 0.5-2.6 0.4-3.9-0.2 -1.2-0.6-2.2-1.6-2.6-2.8l0 0c-0.5-1.3-0.4-2.6 0.1-3.9 0.6-1.2 1.6-2.2 2.8-2.6 2.6-1 5.5 0.4 6.5 3C24.7 158.5 23.3 161.4 20.7 162.4M6.3 154.5c-1.7 0-3.1 1.4-3.1 3.1 0 1.7 1.4 3.1 3.1 3.1 1.7 0 3.1-1.4 3.1-3.1C9.4 155.9 8 154.5 6.3 154.5M6.3 159.6c-1.1 0-2.1-0.9-2.1-2 0-1.1 0.9-2 2.1-2 1.1 0 2 0.9 2 2C8.3 158.7 7.4 159.6 6.3 159.6M18.9 154.5c-1.7 0-3.1 1.4-3.1 3.1 0 1.7 1.4 3.1 3.1 3.1 1.7 0 3.1-1.4 3.1-3.1C22.1 155.9 20.7 154.5 18.9 154.5M18.9 159.6c-1.1 0-2.1-0.9-2.1-2 0-1.1 0.9-2 2.1-2 1.1 0 2 0.9 2 2C21 158.7 20.1 159.6 18.9 159.6" fill="#010101"/><path d="M20 41.7c0 0.6-0.5 1.1-1 1.1 -0.6 0-1.1-0.5-1.1-1.1 0-0.6 0.5-1.1 1.1-1.1C19.5 40.6 20 41.1 20 41.7M20 8.6c0 0.6-0.5 1.1-1 1.1 -0.6 0-1.1-0.5-1.1-1.1s0.5-1.1 1.1-1.1C19.5 7.5 20 8 20 8.6M20 25.1c0 0.6-0.5 1.1-1 1.1 -0.6 0-1.1-0.5-1.1-1.1S18.4 24 19 24C19.5 24.1 20 24.5 20 25.1M33.7 2.6c-3.3 0-6 2.7-6 6 0 3.3 2.7 6 6 6 3.3 0 6-2.7 6-6C39.7 5.3 37 2.6 33.7 2.6zM33.7 13.4c-2.6 0-4.8-2.1-4.8-4.8 0-2.7 2.2-4.8 4.8-4.8 2.6 0 4.8 2.1 4.8 4.8C38.5 11.3 36.3 13.4 33.7 13.4zM45.9 2.6c-3.3 0-6 2.7-6 6 0 3.3 2.7 6 6 6 3.3 0 6-2.7 6-6C51.9 5.3 49.2 2.6 45.9 2.6zM45.9 13.4c-2.6 0-4.8-2.1-4.8-4.8 0-2.7 2.2-4.8 4.8-4.8 2.6 0 4.8 2.1 4.8 4.8C50.7 11.3 48.6 13.4 45.9 13.4zM58.2 2.6c-3.3 0-6 2.7-6 6 0 3.3 2.7 6 6 6s6-2.7 6-6C64.2 5.3 61.5 2.6 58.2 2.6zM58.2 13.4c-2.6 0-4.8-2.1-4.8-4.8 0-2.7 2.2-4.8 4.8-4.8C60.8 3.8 63 6 63 8.6S60.8 13.4 58.2 13.4zM70.4 2.6c-3.3 0-6 2.7-6 6 0 3.3 2.7 6 6 6 3.3 0 6-2.7 6-6C76.4 5.3 73.7 2.6 70.4 2.6zM70.4 13.4c-2.6 0-4.8-2.1-4.8-4.8 0-2.7 2.2-4.8 4.8-4.8 2.6 0 4.8 2.1 4.8 4.8C75.2 11.3 73.1 13.4 70.4 13.4zM82.7 2.6c-3.3 0-6 2.7-6 6 0 3.3 2.7 6 6 6s6-2.7 6-6C88.7 5.3 86 2.6 82.7 2.6zM82.7 13.4c-2.6 0-4.8-2.1-4.8-4.8 0-2.7 2.2-4.8 4.8-4.8 2.6 0 4.8 2.1 4.8 4.8C87.5 11.3 85.3 13.4 82.7 13.4zM36.7 8.6c0 1.7-1.3 3-3 3 -1.7 0-3-1.3-3-3 0-1.7 1.3-3 3-3C35.4 5.6 36.7 7 36.7 8.6zM48.9 8.6c0 1.7-1.3 3-3 3 -1.7 0-3-1.3-3-3 0-1.7 1.3-3 3-3C47.6 5.6 48.9 7 48.9 8.6zM61.2 8.6c0 1.7-1.3 3-3 3s-3-1.3-3-3c0-1.7 1.3-3 3-3S61.2 7 61.2 8.6zM73.4 8.6c0 1.7-1.3 3-3 3 -1.7 0-3-1.3-3-3 0-1.7 1.3-3 3-3C72.1 5.6 73.4 7 73.4 8.6zM85.7 8.6c0 1.7-1.3 3-3 3s-3-1.3-3-3c0-1.7 1.3-3 3-3S85.7 7 85.7 8.6zM33.7 19.2c-3.3 0-6 2.7-6 6 0 3.3 2.7 6 6 6 3.3 0 6-2.7 6-6C39.7 21.9 37 19.2 33.7 19.2zM33.7 30c-2.6 0-4.8-2.1-4.8-4.8 0-2.7 2.2-4.8 4.8-4.8 2.6 0 4.8 2.1 4.8 4.8C38.5 27.9 36.3 30 33.7 30zM45.9 19.2c-3.3 0-6 2.7-6 6 0 3.3 2.7 6 6 6 3.3 0 6-2.7 6-6C51.9 21.9 49.2 19.2 45.9 19.2zM45.9 30c-2.6 0-4.8-2.1-4.8-4.8 0-2.7 2.2-4.8 4.8-4.8 2.6 0 4.8 2.1 4.8 4.8C50.7 27.9 48.6 30 45.9 30zM58.2 19.2c-3.3 0-6 2.7-6 6 0 3.3 2.7 6 6 6s6-2.7 6-6C64.2 21.9 61.5 19.2 58.2 19.2zM58.2 30c-2.6 0-4.8-2.1-4.8-4.8 0-2.7 2.2-4.8 4.8-4.8 2.6 0 4.8 2.1 4.8 4.8C63 27.9 60.8 30 58.2 30zM70.4 19.2c-3.3 0-6 2.7-6 6 0 3.3 2.7 6 6 6 3.3 0 6-2.7 6-6C76.4 21.9 73.7 19.2 70.4 19.2zM70.4 30C67.8 30 65.6 27.9 65.6 25.2c0-2.7 2.2-4.8 4.8-4.8 2.6 0 4.8 2.1 4.8 4.8C75.2 27.9 73.1 30 70.4 30zM82.7 19.2c-3.3 0-6 2.7-6 6 0 3.3 2.7 6 6 6s6-2.7 6-6C88.7 21.9 86 19.2 82.7 19.2zM82.7 30c-2.6 0-4.8-2.1-4.8-4.8 0-2.7 2.2-4.8 4.8-4.8 2.6 0 4.8 2.1 4.8 4.8C87.5 27.9 85.3 30 82.7 30zM36.7 25.2c0 1.7-1.3 3-3 3 -1.7 0-3-1.3-3-3 0-1.7 1.3-3 3-3C35.4 22.2 36.7 23.5 36.7 25.2zM48.9 25.2c0 1.7-1.3 3-3 3 -1.7 0-3-1.3-3-3 0-1.7 1.3-3 3-3C47.6 22.2 48.9 23.5 48.9 25.2zM61.2 25.2c0 1.7-1.3 3-3 3s-3-1.3-3-3c0-1.7 1.3-3 3-3S61.2 23.5 61.2 25.2zM73.4 25.2c0 1.7-1.3 3-3 3 -1.7 0-3-1.3-3-3 0-1.7 1.3-3 3-3C72.1 22.2 73.4 23.5 73.4 25.2zM82.7 28.2c-1.7 0-3-1.3-3-3 0-1.7 1.3-3 3-3C82.7 23.2 82.7 26.5 82.7 28.2zM33.7 35.7c-3.3 0-6 2.7-6 6 0 3.3 2.7 6 6 6 3.3 0 6-2.7 6-6C39.7 38.4 37 35.7 33.7 35.7zM33.7 46.5c-2.6 0-4.8-2.1-4.8-4.8 0-2.7 2.2-4.8 4.8-4.8 2.6 0 4.8 2.1 4.8 4.8C38.5 44.4 36.3 46.5 33.7 46.5zM45.9 35.7c-3.3 0-6 2.7-6 6 0 3.3 2.7 6 6 6 3.3 0 6-2.7 6-6C51.9 38.4 49.2 35.7 45.9 35.7zM45.9 46.5c-2.6 0-4.8-2.1-4.8-4.8 0-2.7 2.2-4.8 4.8-4.8 2.6 0 4.8 2.1 4.8 4.8C50.7 44.4 48.6 46.5 45.9 46.5zM58.2 35.7c-3.3 0-6 2.7-6 6 0 3.3 2.7 6 6 6s6-2.7 6-6C64.2 38.4 61.5 35.7 58.2 35.7zM58.2 46.5c-2.6 0-4.8-2.1-4.8-4.8 0-2.7 2.2-4.8 4.8-4.8 2.6 0 4.8 2.1 4.8 4.8C63 44.4 60.8 46.5 58.2 46.5zM70.4 35.7c-3.3 0-6 2.7-6 6 0 3.3 2.7 6 6 6 3.3 0 6-2.7 6-6C76.4 38.4 73.7 35.7 70.4 35.7zM70.4 46.5c-2.6 0-4.8-2.1-4.8-4.8 0-2.7 2.2-4.8 4.8-4.8 2.6 0 4.8 2.1 4.8 4.8C75.2 44.4 73.1 46.5 70.4 46.5zM82.7 35.7c-3.3 0-6 2.7-6 6 0 3.3 2.7 6 6 6s6-2.7 6-6C88.7 38.4 86 35.7 82.7 35.7zM82.7 46.5c-2.6 0-4.8-2.1-4.8-4.8 0-2.7 2.2-4.8 4.8-4.8 2.6 0 4.8 2.1 4.8 4.8C87.5 44.4 85.3 46.5 82.7 46.5zM36.7 41.7c0 1.7-1.3 3-3 3 -1.7 0-3-1.3-3-3 0-1.7 1.3-3 3-3C35.4 38.7 36.7 40.1 36.7 41.7zM48.9 41.7c0 1.7-1.3 3-3 3 -1.7 0-3-1.3-3-3 0-1.7 1.3-3 3-3C47.6 38.7 48.9 40.1 48.9 41.7zM61.2 41.7c0 1.7-1.3 3-3 3s-3-1.3-3-3c0-1.7 1.3-3 3-3S61.2 40.1 61.2 41.7zM73.4 41.7c0 1.7-1.3 3-3 3 -1.7 0-3-1.3-3-3 0-1.7 1.3-3 3-3C72.1 38.7 73.4 40.1 73.4 41.7zM20 58.2c0 0.6-0.5 1.1-1 1.1 -0.6 0-1.1-0.5-1.1-1.1 0-0.6 0.5-1.1 1.1-1.1C19.5 57.2 20 57.7 20 58.2M33.7 52.3c-3.3 0-6 2.7-6 6 0 3.3 2.7 6 6 6 3.3 0 6-2.7 6-6C39.7 55 37 52.3 33.7 52.3zM33.7 63.1c-2.6 0-4.8-2.1-4.8-4.8 0-2.7 2.2-4.8 4.8-4.8 2.6 0 4.8 2.1 4.8 4.8C38.5 61 36.3 63.1 33.7 63.1zM45.9 52.3c-3.3 0-6 2.7-6 6 0 3.3 2.7 6 6 6 3.3 0 6-2.7 6-6C51.9 55 49.2 52.3 45.9 52.3zM45.9 63.1c-2.6 0-4.8-2.1-4.8-4.8 0-2.7 2.2-4.8 4.8-4.8 2.6 0 4.8 2.1 4.8 4.8C50.7 61 48.6 63.1 45.9 63.1zM58.2 52.3c-3.3 0-6 2.7-6 6 0 3.3 2.7 6 6 6s6-2.7 6-6C64.2 55 61.5 52.3 58.2 52.3zM58.2 63.1c-2.6 0-4.8-2.1-4.8-4.8 0-2.7 2.2-4.8 4.8-4.8 2.6 0 4.8 2.1 4.8 4.8C63 61 60.8 63.1 58.2 63.1zM70.4 52.3c-3.3 0-6 2.7-6 6 0 3.3 2.7 6 6 6 3.3 0 6-2.7 6-6C76.4 55 73.7 52.3 70.4 52.3zM70.4 63.1C67.8 63.1 65.6 61 65.6 58.3c0-2.7 2.2-4.8 4.8-4.8 2.6 0 4.8 2.1 4.8 4.8C75.2 61 73.1 63.1 70.4 63.1zM82.7 52.3c-3.3 0-6 2.7-6 6 0 3.3 2.7 6 6 6s6-2.7 6-6C88.7 55 86 52.3 82.7 52.3zM82.7 63.1c-2.6 0-4.8-2.1-4.8-4.8 0-2.7 2.2-4.8 4.8-4.8 2.6 0 4.8 2.1 4.8 4.8C87.5 61 85.3 63.1 82.7 63.1zM36.7 58.3c0 1.7-1.3 3-3 3 -1.7 0-3-1.3-3-3 0-1.7 1.3-3 3-3C35.4 55.3 36.7 56.6 36.7 58.3zM48.9 58.3c0 1.7-1.3 3-3 3 -1.7 0-3-1.3-3-3 0-1.7 1.3-3 3-3C47.6 55.3 48.9 56.6 48.9 58.3zM61.2 58.3c0 1.7-1.3 3-3 3s-3-1.3-3-3c0-1.7 1.3-3 3-3S61.2 56.6 61.2 58.3zM70.4 61.3c-1.7 0-3-1.3-3-3 0-1.7 1.3-3 3-3C70.4 56.3 70.4 59.6 70.4 61.3zM20 74.8c0 0.6-0.5 1.1-1 1.1 -0.6 0-1.1-0.5-1.1-1.1 0-0.6 0.5-1.1 1.1-1.1C19.5 73.7 20 74.2 20 74.8M33.7 68.9c-3.3 0-6 2.7-6 6 0 3.3 2.7 6 6 6 3.3 0 6-2.7 6-6C39.7 71.6 37 68.9 33.7 68.9zM33.7 79.6c-2.6 0-4.8-2.1-4.8-4.8 0-2.7 2.2-4.8 4.8-4.8 2.6 0 4.8 2.1 4.8 4.8C38.5 77.5 36.3 79.6 33.7 79.6zM45.9 68.9c-3.3 0-6 2.7-6 6 0 3.3 2.7 6 6 6 3.3 0 6-2.7 6-6C51.9 71.6 49.2 68.9 45.9 68.9zM45.9 79.6c-2.6 0-4.8-2.1-4.8-4.8 0-2.7 2.2-4.8 4.8-4.8 2.6 0 4.8 2.1 4.8 4.8C50.7 77.5 48.6 79.6 45.9 79.6zM58.2 68.9c-3.3 0-6 2.7-6 6 0 3.3 2.7 6 6 6s6-2.7 6-6C64.2 71.6 61.5 68.9 58.2 68.9zM58.2 79.6c-2.6 0-4.8-2.1-4.8-4.8 0-2.7 2.2-4.8 4.8-4.8 2.6 0 4.8 2.1 4.8 4.8C63 77.5 60.8 79.6 58.2 79.6zM70.4 68.9c-3.3 0-6 2.7-6 6 0 3.3 2.7 6 6 6 3.3 0 6-2.7 6-6C76.4 71.6 73.7 68.9 70.4 68.9zM70.4 79.6c-2.6 0-4.8-2.1-4.8-4.8 0-2.7 2.2-4.8 4.8-4.8 2.6 0 4.8 2.1 4.8 4.8C75.2 77.5 73.1 79.6 70.4 79.6zM82.7 68.9c-3.3 0-6 2.7-6 6 0 3.3 2.7 6 6 6s6-2.7 6-6C88.7 71.6 86 68.9 82.7 68.9zM82.7 79.6c-2.6 0-4.8-2.1-4.8-4.8 0-2.7 2.2-4.8 4.8-4.8 2.6 0 4.8 2.1 4.8 4.8C87.5 77.5 85.3 79.6 82.7 79.6zM36.7 74.9c0 1.7-1.3 3-3 3 -1.7 0-3-1.3-3-3 0-1.7 1.3-3 3-3C35.4 71.9 36.7 73.2 36.7 74.9zM48.9 74.9c0 1.7-1.3 3-3 3 -1.7 0-3-1.3-3-3 0-1.7 1.3-3 3-3C47.6 71.9 48.9 73.2 48.9 74.9zM61.2 74.9c0 1.7-1.3 3-3 3s-3-1.3-3-3c0-1.7 1.3-3 3-3S61.2 73.2 61.2 74.9zM20 91.4c0 0.6-0.5 1.1-1 1.1 -0.6 0-1.1-0.5-1.1-1.1 0-0.6 0.5-1.1 1.1-1.1C19.5 90.3 20 90.8 20 91.4M33.7 85.4c-3.3 0-6 2.7-6 6 0 3.3 2.7 6 6 6 3.3 0 6-2.7 6-6C39.7 88.1 37 85.4 33.7 85.4zM33.7 96.2c-2.6 0-4.8-2.1-4.8-4.8 0-2.7 2.2-4.8 4.8-4.8 2.6 0 4.8 2.1 4.8 4.8C38.5 94.1 36.3 96.2 33.7 96.2zM45.9 85.4c-3.3 0-6 2.7-6 6 0 3.3 2.7 6 6 6 3.3 0 6-2.7 6-6C51.9 88.1 49.2 85.4 45.9 85.4zM45.9 96.2c-2.6 0-4.8-2.1-4.8-4.8 0-2.7 2.2-4.8 4.8-4.8 2.6 0 4.8 2.1 4.8 4.8C50.7 94.1 48.6 96.2 45.9 96.2zM58.2 85.4c-3.3 0-6 2.7-6 6 0 3.3 2.7 6 6 6s6-2.7 6-6C64.2 88.1 61.5 85.4 58.2 85.4zM58.2 96.2c-2.6 0-4.8-2.1-4.8-4.8 0-2.7 2.2-4.8 4.8-4.8 2.6 0 4.8 2.1 4.8 4.8C63 94.1 60.8 96.2 58.2 96.2zM70.4 85.4c-3.3 0-6 2.7-6 6 0 3.3 2.7 6 6 6 3.3 0 6-2.7 6-6C76.4 88.1 73.7 85.4 70.4 85.4zM70.4 96.2C67.8 96.2 65.6 94.1 65.6 91.4c0-2.7 2.2-4.8 4.8-4.8 2.6 0 4.8 2.1 4.8 4.8C75.2 94.1 73.1 96.2 70.4 96.2zM82.7 85.4c-3.3 0-6 2.7-6 6 0 3.3 2.7 6 6 6s6-2.7 6-6C88.7 88.1 86 85.4 82.7 85.4zM82.7 96.2c-2.6 0-4.8-2.1-4.8-4.8 0-2.7 2.2-4.8 4.8-4.8 2.6 0 4.8 2.1 4.8 4.8C87.5 94.1 85.3 96.2 82.7 96.2zM36.7 91.4c0 1.7-1.3 3-3 3 -1.7 0-3-1.3-3-3 0-1.7 1.3-3 3-3C35.4 88.4 36.7 89.8 36.7 91.4zM48.9 91.4c0 1.7-1.3 3-3 3 -1.7 0-3-1.3-3-3 0-1.7 1.3-3 3-3C47.6 88.4 48.9 89.8 48.9 91.4zM58.2 94.4c-1.7 0-3-1.3-3-3 0-1.7 1.3-3 3-3C58.2 89.5 58.2 92.8 58.2 94.4zM20 107.9c0 0.6-0.5 1.1-1 1.1 -0.6 0-1.1-0.5-1.1-1.1 0-0.6 0.5-1.1 1.1-1.1C19.5 106.9 20 107.3 20 107.9M33.7 102c-3.3 0-6 2.7-6 6s2.7 6 6 6c3.3 0 6-2.7 6-6S37 102 33.7 102zM33.7 112.8c-2.6 0-4.8-2.1-4.8-4.8s2.2-4.8 4.8-4.8c2.6 0 4.8 2.1 4.8 4.8S36.3 112.8 33.7 112.8zM45.9 102c-3.3 0-6 2.7-6 6s2.7 6 6 6c3.3 0 6-2.7 6-6S49.2 102 45.9 102zM45.9 112.8c-2.6 0-4.8-2.1-4.8-4.8s2.2-4.8 4.8-4.8c2.6 0 4.8 2.1 4.8 4.8S48.6 112.8 45.9 112.8zM58.2 102c-3.3 0-6 2.7-6 6s2.7 6 6 6 6-2.7 6-6S61.5 102 58.2 102zM58.2 112.8c-2.6 0-4.8-2.1-4.8-4.8s2.2-4.8 4.8-4.8c2.6 0 4.8 2.1 4.8 4.8S60.8 112.8 58.2 112.8zM70.4 102c-3.3 0-6 2.7-6 6s2.7 6 6 6c3.3 0 6-2.7 6-6S73.7 102 70.4 102zM70.4 112.8c-2.6 0-4.8-2.1-4.8-4.8s2.2-4.8 4.8-4.8c2.6 0 4.8 2.1 4.8 4.8S73.1 112.8 70.4 112.8zM82.7 102c-3.3 0-6 2.7-6 6s2.7 6 6 6 6-2.7 6-6S86 102 82.7 102zM82.7 112.8c-2.6 0-4.8-2.1-4.8-4.8s2.2-4.8 4.8-4.8c2.6 0 4.8 2.1 4.8 4.8S85.3 112.8 82.7 112.8zM36.7 108c0 1.7-1.3 3-3 3 -1.7 0-3-1.3-3-3s1.3-3 3-3C35.4 105 36.7 106.3 36.7 108zM48.9 108c0 1.7-1.3 3-3 3 -1.7 0-3-1.3-3-3s1.3-3 3-3C47.6 105 48.9 106.3 48.9 108zM20 124.5c0 0.6-0.5 1.1-1 1.1 -0.6 0-1.1-0.5-1.1-1.1s0.5-1.1 1.1-1.1C19.5 123.4 20 123.9 20 124.5M33.7 118.5c-3.3 0-6 2.7-6 6s2.7 6 6 6c3.3 0 6-2.7 6-6S37 118.5 33.7 118.5zM33.7 129.3c-2.6 0-4.8-2.1-4.8-4.8s2.2-4.8 4.8-4.8c2.6 0 4.8 2.1 4.8 4.8S36.3 129.3 33.7 129.3zM45.9 118.5c-3.3 0-6 2.7-6 6s2.7 6 6 6c3.3 0 6-2.7 6-6S49.2 118.5 45.9 118.5zM45.9 129.3c-2.6 0-4.8-2.1-4.8-4.8s2.2-4.8 4.8-4.8c2.6 0 4.8 2.1 4.8 4.8S48.6 129.3 45.9 129.3zM58.2 118.5c-3.3 0-6 2.7-6 6s2.7 6 6 6 6-2.7 6-6S61.5 118.5 58.2 118.5zM58.2 129.3c-2.6 0-4.8-2.1-4.8-4.8s2.2-4.8 4.8-4.8c2.6 0 4.8 2.1 4.8 4.8S60.8 129.3 58.2 129.3zM70.4 118.5c-3.3 0-6 2.7-6 6s2.7 6 6 6c3.3 0 6-2.7 6-6S73.7 118.5 70.4 118.5zM70.4 129.3c-2.6 0-4.8-2.1-4.8-4.8s2.2-4.8 4.8-4.8c2.6 0 4.8 2.1 4.8 4.8S73.1 129.3 70.4 129.3zM82.7 118.5c-3.3 0-6 2.7-6 6s2.7 6 6 6 6-2.7 6-6S86 118.5 82.7 118.5zM82.7 129.3c-2.6 0-4.8-2.1-4.8-4.8s2.2-4.8 4.8-4.8c2.6 0 4.8 2.1 4.8 4.8S85.3 129.3 82.7 129.3zM36.7 124.5c0 1.7-1.3 3-3 3 -1.7 0-3-1.3-3-3s1.3-3 3-3C35.4 121.5 36.7 122.9 36.7 124.5zM45.8 127.6c-1.7 0-3-1.3-3-3 0-1.7 1.3-3 3-3C45.8 122.6 45.8 125.9 45.8 127.6zM20 141c0 0.6-0.5 1.1-1 1.1 -0.6 0-1.1-0.5-1.1-1.1s0.5-1.1 1.1-1.1C19.5 140 20 140.4 20 141M33.7 135.1c-3.3 0-6 2.7-6 6 0 3.3 2.7 6 6 6 3.3 0 6-2.7 6-6C39.7 137.8 37 135.1 33.7 135.1zM33.7 145.9c-2.6 0-4.8-2.1-4.8-4.8 0-2.7 2.2-4.8 4.8-4.8 2.6 0 4.8 2.1 4.8 4.8C38.5 143.8 36.3 145.9 33.7 145.9zM45.9 135.1c-3.3 0-6 2.7-6 6 0 3.3 2.7 6 6 6 3.3 0 6-2.7 6-6C51.9 137.8 49.2 135.1 45.9 135.1zM45.9 145.9c-2.6 0-4.8-2.1-4.8-4.8 0-2.7 2.2-4.8 4.8-4.8 2.6 0 4.8 2.1 4.8 4.8C50.7 143.8 48.6 145.9 45.9 145.9zM58.2 135.1c-3.3 0-6 2.7-6 6 0 3.3 2.7 6 6 6s6-2.7 6-6C64.2 137.8 61.5 135.1 58.2 135.1zM58.2 145.9c-2.6 0-4.8-2.1-4.8-4.8 0-2.7 2.2-4.8 4.8-4.8 2.6 0 4.8 2.1 4.8 4.8C63 143.8 60.8 145.9 58.2 145.9zM70.4 135.1c-3.3 0-6 2.7-6 6 0 3.3 2.7 6 6 6 3.3 0 6-2.7 6-6C76.4 137.8 73.7 135.1 70.4 135.1zM70.4 145.9c-2.6 0-4.8-2.1-4.8-4.8 0-2.7 2.2-4.8 4.8-4.8 2.6 0 4.8 2.1 4.8 4.8C75.2 143.8 73.1 145.9 70.4 145.9zM82.7 135.1c-3.3 0-6 2.7-6 6 0 3.3 2.7 6 6 6s6-2.7 6-6C88.7 137.8 86 135.1 82.7 135.1zM82.7 145.9c-2.6 0-4.8-2.1-4.8-4.8 0-2.7 2.2-4.8 4.8-4.8 2.6 0 4.8 2.1 4.8 4.8C87.5 143.8 85.3 145.9 82.7 145.9zM36.7 141.1c0 1.7-1.3 3-3 3 -1.7 0-3-1.3-3-3 0-1.7 1.3-3 3-3C35.4 138.1 36.7 139.4 36.7 141.1zM20 157.6c0 0.6-0.5 1.1-1 1.1 -0.6 0-1.1-0.5-1.1-1.1 0-0.6 0.5-1.1 1.1-1.1C19.5 156.5 20 157 20 157.6M33.7 151.6c-3.3 0-6 2.7-6 6 0 3.3 2.7 6 6 6 3.3 0 6-2.7 6-6C39.7 154.3 37 151.6 33.7 151.6zM33.7 162.4c-2.6 0-4.8-2.1-4.8-4.8 0-2.7 2.2-4.8 4.8-4.8 2.6 0 4.8 2.1 4.8 4.8C38.5 160.3 36.3 162.4 33.7 162.4zM45.9 151.6c-3.3 0-6 2.7-6 6 0 3.3 2.7 6 6 6 3.3 0 6-2.7 6-6C51.9 154.3 49.2 151.6 45.9 151.6zM45.9 162.4c-2.6 0-4.8-2.1-4.8-4.8 0-2.7 2.2-4.8 4.8-4.8 2.6 0 4.8 2.1 4.8 4.8C50.7 160.3 48.6 162.4 45.9 162.4zM58.2 151.6c-3.3 0-6 2.7-6 6 0 3.3 2.7 6 6 6s6-2.7 6-6C64.2 154.3 61.5 151.6 58.2 151.6zM58.2 162.4c-2.6 0-4.8-2.1-4.8-4.8 0-2.7 2.2-4.8 4.8-4.8 2.6 0 4.8 2.1 4.8 4.8C63 160.3 60.8 162.4 58.2 162.4zM70.4 151.6c-3.3 0-6 2.7-6 6 0 3.3 2.7 6 6 6 3.3 0 6-2.7 6-6C76.4 154.3 73.7 151.6 70.4 151.6zM70.4 162.4c-2.6 0-4.8-2.1-4.8-4.8 0-2.7 2.2-4.8 4.8-4.8 2.6 0 4.8 2.1 4.8 4.8C75.2 160.3 73.1 162.4 70.4 162.4zM82.7 151.6c-3.3 0-6 2.7-6 6 0 3.3 2.7 6 6 6s6-2.7 6-6C88.7 154.3 86 151.6 82.7 151.6zM82.7 162.4c-2.6 0-4.8-2.1-4.8-4.8 0-2.7 2.2-4.8 4.8-4.8 2.6 0 4.8 2.1 4.8 4.8C87.5 160.3 85.3 162.4 82.7 162.4zM33.7 160.7c-1.7 0-3-1.3-3-3s1.3-3 3-3C33.7 155.7 33.7 159 33.7 160.7z" fill="#579241"/></svg>